<mxfile host="app.diagrams.net" modified="2024-01-27T20:32:52.762Z" agent="Mozilla/5.0 (Windows NT 10.0; Win64; x64) AppleWebKit/537.36 (KHTML, like Gecko) Chrome/120.0.0.0 Safari/537.36" etag="pcdwCgaPl33qTdY7rUeD" version="23.0.2" type="device">
  <diagram name="Page-1" id="k1TSQH5X-Tw5t6g29JF9">
    <mxGraphModel dx="1799" dy="2036" grid="1" gridSize="10" guides="1" tooltips="1" connect="1" arrows="1" fold="1" page="1" pageScale="1" pageWidth="850" pageHeight="1100" math="0" shadow="0">
      <root>
        <mxCell id="0" />
        <mxCell id="1" parent="0" />
        <mxCell id="xfd4URBrpyYl_AO3d1zu-3" value="" style="shape=image;verticalLabelPosition=bottom;labelBackgroundColor=default;verticalAlign=top;aspect=fixed;imageAspect=0;image=data:image/png,iVBORw0KGgoAAAANSUhEUgAABBQAAANUCAYAAAAD4H5+AAAAAXNSR0IArs4c6QAAAARnQU1BAACxjwv8YQUAAAAJcEhZcwAADsMAAA7DAcdvqGQAAMAHSURBVHhe7N0LgFXVeff/NVwGBIaLSjSAl2giYGNMWwXfppqGS5I2jQjaJFYRk9i0L5fkbUgahNj2jRVJm6uojbkVsI36VrnYpk0KmKh98woam9sfMFcTGZpERQUUmGGG//mt2c+wWO59bnPmnDnnfD+4PXuvvdba+8zMOXuvZ6+1d0t7e/tRBwAAAAAAUIJBySsAAAAAAEDRCCgAAAAAAICSEVAAAAAAAAAlI6AAAAAAAABKRkABAAAAAACUjIACAAAAAAAoGQEFAAAAAABQMgIKAAAAAACgZAQUAAAAAABAyQgoAAAAAACAkhFQAAAAAAAAJSOgAAAAAAAASkZAAQAAAAAAlIyAAgAAAAAAKBkBBQAAAAAAUDICCgAAAAAAoGQEFAAAAAAAQMkIKAAAAAAAgJIRUAAAAAAAACUjoAAAAAAAAEpGQAEAAAAAAJSMgAIAAAAAACgZAQUAAAAAAFCylvb29qPJfM088ovnkzkAAGDOPWWUGz1sSLIEAAAwsNQ0oHD06FH31PMH3cVfejRJAQAA5j+vm+ZOG3tCsgQAADCw1HTIgwIKR7q6kiUAABA60nXEHysBAAAGopr2UOjq6nI//O+97q1370hSAACA+Y+rXutec8o4N2gQtzwC6pECgvft+LX75+//MkkBgP7xR+ed6v7otadW/UJEzQMKO3c/7d72z08kKQAAwPz7O6e6yRNOcoMHD05SANST7u5u9+lvPelueeSpJAUA+sf7LzrNffANr3ItLS1JSnXUfMgDAADIVu0TAwCVo4tnR44cSZYAoP90d3X775xqq2lAgZMkAACyKfBO8B2oT/rsqofCkU4CCgD6X+eRzpqcM9BDAQCAAYrAO1D/ON8FUA1Hu3uCmNVW+x4KnCwBAACgAflgAqe6AKoh911DDwUAAAAAAFCyWvRsrGlAwSOoAAAAAABA3al9QAEAAKSiJx9Q3/zVQj7GAKqhRt81BBQAABioGHsN1DXuoQCgamr0XVP7gAI3ZQQAIFULLRGgrvGkFgDVUqtzhpoGFHq6gdEPDACANEfpKw0AAIpQq2GSNQ0oMDYUAIBs9FAAgJd746tf4W54y2vdGSeOTFIA1OqUoaW9vb1mrfquri63c/fT7m3//ESSAgAAzL+/c6qbPOEkN3jw4CQFQL3QhbPDhw+7Tzz0E/eF7z2TpDYHNfgvfe0k/zr2hFaf9uTeA+677c+7Wx56wv1874s+rRxnnjjS/eijl/r55w92uNf8zf25106/PJB88rLfcmNOGOrnP7Tx8QGxj/p9LLlksnv9xHH+Z/dk7vdw49e/738vfTU2917ff8kUd0luG/odSTG/8798y3nu9BNH+Pkbv/YD9/Pnyv/baHbvO3+8+9AlZ7thw4YlKdXBTRkBAACACtPQXj+8t4k6GqlR+anLftttWTgz17ic7M6fMM6dMW6kn9549ik+7ccfvTTXiHxtUqJ0qssoWPG63DYGojmvneQWXHiWn8YkQZVaUsNdvxftl36G+t1o/rGlv++WXHJOkqs8qvvpm67wvUbeePYrUn/nX7zyIv/3EVMAwn5O9DipTwx5AABggOI4CdSv3s9vE32M1WAtpnF6Q64B+qV3XZQslebBn/za3fJgzxXvD274tnsot4z81GNAjX3z4I9/lZuO/dwUEEhr7BfjS1dedFzdWRZc+Cr/91HudlAExS9rcCPYmt+UkZMlFGvOeZN8Ny2ilwCaRe8VTgD1q0k+wuqZcP7EY70F1m7/qZt521Y39IN3+emCT3zNrculmWumvarsK+NLNz3uXv0397vVD/8wSUE+83ONefOxr33fzbr9gdy01X3s6z/waerpoSEqpVIg4pqgbgUq8v3O9fehc3n0k1yzuhZt65reQ+HIkSNuV/sz3EOhQcTj5Wxs1v3f3+2jyX0ZL6cvK0VARV9W+iIcaPSeP3HZb/r5Fw52uqUbH/fztaaf3aXnTeodL/ed9uf9eLm+/D5M1hjJTd9vd/f/YHfmNr545fRkzrnr7tqWzA1M5Y4JLMec1050b8/9ruShH//arXv0Z35+oP5tof9xDwWgfunE3t9D4eGfuC98t7HvoRDe10DUaL3xP3oaqzH1TFAwQXReMn7FfX5edNHo2LH2RX+M1TmGhjW8kMtrx0WlmfBK+/kTx/aej3y3/Tl/3wIrL/G5iY7xOkdS9/zv7XnOnyPlO65b/jHDe7ahMradmLr520UwBT/C9yIqG+67qP4wKBOvN+H7z9p+6Eu5865rLjzLz//2J/49t+2eeyaoHvUakPfe9Ujvz7cY+j2prL1H9RpRoCfNJ+f8lnv/G3sCCfF9L7YsmumHSYiCEVk9TsKf3S+eO+B/NsXcl0J/E/qZFvs7rmfve/1496GLq38PBQIK6DN9oWhclH0ZpLGbvpTyRRXSjW00BktUl76IBhp9oergIQNlHxWECSPHRvt3xZcfct9NDiil0gHv3vdckvd3LvqdW/Q71PmpK5M55yPYA5X+5tQtU+83S9Z7LIe6DCraL2sf/WlvsGUg/m2hOv7tHVPclIknE1AA6lAzBRRKOU9Tg/+xpW9NlpyblzsfsQZu2PBVA/f1E0/s7cVg9YbHRAnPI+JG/Ccv+20frA/ZcTvtGK9tfGjjt92mH7QnKT3yneuqzJ25Y3Z8LhDvS3w1X1RWPQWsgaufzdM3Xe7nZfyKe1/WaFYDWfc9MK++8f6CNzJUr4BP5X5H8rHc+78x2dfwPDEMNBQjvNjn38dtufeRZz90jwX7WV/+5Yd9cEcKBRT0+/vilf/juN+TyXcOpiCC/i7Tfmdrc+0RlW20wIICCh++5NWutbW69+yo+U0ZGfJQ3yw6WahhqXz60im3a9vqB5/wkUh98G/82veTVOSjL3o7SOhgtOn7x6Ly+n3oS7YcKqsDWaHfuehA3ZcbL9WSDvz6GdkBTD9D/fx0JSCk99jXmxkBmRjtANS1ZhmypJvvmVse2pXMpdMVajWwbcpqxOocpi/HVx3H42CC6LitusNjvLHAQZwen+vqfMAa+ipT6FwgLZggPedUb+0NPOhnE/ZKCIcqmEuCn7V67RbzVIR/yZ0DGgVSfM+EXEPe9knDU0oJJoh6aphi9mPWbVt8wEDT96JzqSz6uekCVlowQfRzT7sXh4IJ+donDXs/hxoNeah5QIGxofUt7Ook6uI2fvm9vWOn9KURRv/8+LoJY5Ol4j2Z+5JSBFcHnnWPldfLodlcM60nwi+KGl/xDw/7n58dqN746lOO+90VS1/eYTl1cVN0PPydhwdD5S8m+DCQ6ApBeIMhvcfX3LjJ//wu+OTXcvP35/7Wj0XEdcBruIMSBoQW/eM4CWCA01VzU4lHEIrOU3Tl+4MbH/fnFrqiXAo1lnVeqnOU+HxUF7lUt9I1zj88puscIGzI+6ciJOc9KqP6dD6g3gPhEESdC2TRvtj5kib1vrCAhLb3pXcdGwq6KblyL9p2TPcUM8X2/NV5tLYv2l7Y2FYwQI+1LNWZ40YlcxpKcnyPjjTqFaveB5q0P4X0BGqOnYuFbYzw96nhM/F55n3vvrj3vEzv28rp/M3OUVV/w93PIXe6UItzBh4bibLpyzFsWPov+//4gXv+0LGuWfrSUAMs/BKPr4zrIKRIqSb78GteXyJ6FaVbnvCgJZZueUXz+pKYc97ElzWatdxzI6CeCG0h2p7l919aRZQJ2b6obLwvojTl0RS/NxO+f03FOHPcsYPfd/cciwQ/+JNfJXOl07bDCLvurqzxcmFUWr9zBX+ODyqU3ktB71m/v3J+7n4/k9+Z6rC/q2KFvwddLdB7DP+udSC88T+OPbdZB+fwikEofB+aSnkfpbC/kfB9p/29of7Qkw+oX/7z2+AfYR0DQ2lXqu34lDaF9wwIWTf61Q894c8tSh02q6vuOi/V/qi8GvEh1a10nSPpmK6enCbcp9cF5wQ6hwrfn+6lpICH6lY3/izq3WjnS5r0Xq4L9kfBEztXuTN4n9qP8BxGjeCw8WzDBoqx+uGXDzFXY1v3JQvPcYoVnmPoXKnSdEHK2D05bD/j32d4nhm2T/Q3EJ7D6fxNF9gsmKPeGqWeI+Llav6UB9Qv3ajO6AOrD3ca3yALIp/xgeO+d1/iI6WatE5dvzSvSK9FiHXjP8ujG7sYfWFY+hffdZH/otWYNS1rrNi9Sd325aseElqv7lFar3W6iVBaw0v7ou5g6t5v+fVqZQr1tLBubLYvKqttx13pwvem/U2T9f7z0YFYtB/2/rRdPedXtD4M9BRDDVWz6ftP5b27cnglITxQFkO/+x99dI7/ecQ/9zCgEVPXRo3RU177nakOpZUy9EI37imGuu/Z1YaHfvzyQI0OVOH70FTM+yiVbSd+32l/bwCA6vHnupzu+mOejk9p06UpwxLE30AxaLyXKg5AhFfFdW4a1x1efAmF50rqMaChDeF5owIe2lbWebCkjfNXTwRr2IpdmAiHPShYo3NAc0kQTNC5d1g+H39OmztHiL1w6FggQNuyIE9/XfwoRRg4SQsmhTd8D9sW4VCMtJ4T+vne/4On/Lze8+lFnvPVhWYc8sBVl/qlD2B4FVcR2nz0pWld4sO7+cYUjYwDDqVQ4ykODqhBfe97Lk6uEL98fJvWh13NRGn64g2/zPSlFY6XU7AhX1DhE7lGXdp70bite999cbLUE4kO600LboTDFwr9rM26R489pkfvTwcHBUes/lsezD/GMU04RnLdo08mc+n0Ra9eKzYVe9BTN0RFmtMawf53lVuf9nssd5xdmvCkQn/rWcEIRbztakMc3VfwKm18puR7H6XS+06714OJ/95QXzhOAvWtGT7D8dXpMcMrE8SO662kYs9JRI1SO67qnMAuTunigM4vwyviWfR0qDTh+cYZJ45I5o4/h9NTpkyhxnIaO6e1fdQQB3v/OjeycxFt/1iQ5+VDLWJ66obRNiot/Jn++IZL/Q2948ny6PcSzpv7cr+ftHJ240/RU9AaBkMeUE/iLuGl3sglixrw+qJTNyY1QtdtL757m77Mzp8wzpfVeLiwV0TPAeC3fH3WwA27tukK+uuC4ICCD9ZAUz6NvbLxcuEYtKyu/NoXRbFt7F48Pk/bsy9w/fzCG/3FkXptJwxshEMJ8lE017rka3vhwUT7Veqzm1U2bBw/VMTQCUXrbSqGDsp25V49KPR7skBUPE4x3Bf9vMPfRSnj7NLo5xbfB0InDgpYFTOUQO/h2O+387j3ob9PO5DrpKRQXYWE71tDUPQ3qr9VjRO0963ffzHvGwMPPfmA+tYsn+EwkJ12dXvphsd7e/RpCs/B+jNwUAnaPw2PWLf9WCNf7FxPFwjUI9XOX9K8UMSQgrAhrGCBnSvYfRS03uZ1jlTscIewp6J+7hrioCd9Gbu/WXhPhKwASOg7QTCkLxcD0/Tl3MiG/DalZuyhwIlS/RqbPH9XsqK8ummMdZ2Kp7AxGLIvOus6VmxD1Czd+O2ehnTuS05X8sOr+fryfe/dj/TWG46hkjBCGX4x6gs7vPqsMVw2Xu7Gr/9/SerL2XgvXb228XkWjBA7KEg4PCBMlzDAUOzdfE18AyO93/d+Jbffuf0qVRx9zvq994UCBcbGNhr9Lq3LoA6q4fCLcsfZ5aOxjWFQQe+/52p/z1CCxz6UffIQDgd6713/77j3ob/P8O9SwxXKFR9wwyCRunZqPKfeu17Dkz3UEQ6TQF1rll5GhW4kGPbo03Tmiccar5W6iWN/0jH1vXdv8xcrdJFAj14MzxF0XpLVK1GK6bURHqcVxAi75euiwPEXl4q/H1ZYzi7OqBdpeKFGvW5veOuxc6lifidhnnzBFKNzJ+shUKgHRHzOEgajsiYrEw5t0TlvWt5wuj8IbtW93DkDPRRQN8ZkfGGGNNbfuk7F0+smpEcyi+3OnyUeYxVe+f9u+95k7pis8XJhOTVW9UVpBwl9ydt4uazyEu+LhNHk8L4CuvOtNdDDdNGySaszi/ZZUemQ6g0DEmokW5Cnr1fK+0q9Xmwf9PNPC5yEXQDD4SbhwTLtpkNZ4+zy0QFJN5dUgzytV4h6w+iqhHouhD87HfitB0/PCcHLuyTq78f0pefAC7m/mTCwo9932HtIf5/6m9HfXXiARR1hxANQ/5rgcxw2ynTekm9In85PwmPV9/KcSw00CozoIsGNX/+BP0dQb0A7Duv4n9VQDp/MYHQOFp4D2L2vTNhLV0MdwuEOxZ4Pap9CLwT3TPAXapLes/7cJTmv0n6EF0KyhOcyKp/vXlX6nYfnSuF5dpYwqKCfVRiQSptMWPcZJxUuFw9ZRem4hwLKog+gyYrGDjSlfGHoS9wOEPoSU8NRN/bTVWk12gpFYvVlHP6MjBq2oTHJF70anmFjOTwghfPFdm/T/mmf7XcTRrI13s++1HVzHwvyFLoRYXygq/TvPTzoqdEfjnWzSdFtc/7EE/2ryoUHKf2e0spanjh/ITpo66TBrkro3hPxQU7DSeznEZ4kaVtp+/L0TZcnOY79DZTD/90EXTDVg0L3yfA3plw0w18tKeW9AgAqy18tbIKeRjq/CYPv6kaf1sBUr7xP5taZUm4sWCv+ngnJGP44UKJgfXgvgaz3ovcdH4/D3pVpjXj9TK0+nddZ8KHYBr/oPCHcp7hXpHrPxhdNin08p+oOe97q/eh3Hr/PtN952jlybG0QNEnrXarzL/1OdG6uc14TBrfSfu46X9P5pH6nOldqqPOkXNO66YY8eAx7qEth4zKrgabGV9ilKGyE6UtoINOV3Qs/8e8v+5LVVWk12tKuTJcjbMSHX4AWsNA4RGuoFnvQ1e8jHDqgIQAaRhJGoe1+CmHvh0K/E/3+wu3rZ1FJxT5ZIVZMb5lKsKsSSzf9l79HQXgvBB3UwmdWV5Meh6Tfbfj50t+MbqCpA6kOmvGjWlE/CLwDqBcaKhgei9TAVINPjTY1+hTsDocF6FxSV/oHuudy50d2jqLzKzVudX6meyrpZtB2Lqhzguwr7y3+3EsXpVReQwzCi1Px/RmMXWwKz7WLvbhkwt6/+p3owpL2Qb8L7Ud8z4vwBtyFaIhpOPRB9eu8oxK/c/WAsL8nna/qvFvDXdWrVr+HR5f+vl+n89Ennz12z4cwuGXnvFZOr3aDcv1Ozxg36ri/WZSHIQ8oiz584Qcw7Yq9dSXSpLhR2Pj+RRGRyVqzLu/qzqYx6LoyHQYYfM+F6OkQxr44Y/piC4UR2jASrSv0qiO8C22xd/ONhw7Y/RIUhbbuc9r3+9598XHR7mJurBkeKOcHT55IY5FjmwoFDNR936hHRRiMSpt0jwWJDwRpeeOp0MEjvP9H+Hcb6hlK0DO+UWwoRRiY0c81bfvhZO+jL/S7VZBDQTzd30P3IgnfowILaZ9RDHwtg1q43xBQx5opKOjPm3LHofgYqwaqGn3huZGO8z5vHZwP6oq93UTSLtqokap7Kulx1Wbphm9nvh/d40vnRboopfLhUAedm2Xd2yptfH/YK6AY2v9w+ITucaF90LmB7YfOP+331tNgL+5+Uzrn0Q0e44BIJX7nqju8B5R+frrBunrVKiBidave+Oen+6SlldOrndfpHK0S52AYCAEFrr7UrbArUlqXolDYMNYHP7zSPdDpAKlosK5MK8BwRe7LzShimva+dcAJDxYmvMGivijjg65FkVVeX8Rhg7/YiHTYcA8bt6KbUlpQRA1g23f9TooRDsvQQTHtPZqwK58CEYUOIOFwEO2b8heaTPhz1IEjLW84FaLeBjYUJF9DPByuYAGRn+99yb+KDnYar5i2D+FUKepBoYi+DqQKMIR30c56zjcGtqPdR+mlANSxQYNyp9pN9BHWOZP14tP5Rni+p3mdb2idek6mHf+sYasp37mi5QmP/6LzpbR0c6zcy59iEG47vMghOq5qv+MeCCqjHqR6mte6x46/r0G4LzrHUeM1LK909SLVuVkWlVM+U8z5VBptI23/bR9ec+Om3v1Tms7bi3l0pOh3rhtWqn6dd4S/N80X+p3rd6Fthu/TqMew9ksBi3h9WG9M57/2d5j1ntUTuZLnYM2spb29vWZfc0eOHHG72p9xb/vn0iJtGBjU6FX3I4sQ6ovTR0GDQIPW/eVbXnfcmDN9uMM86hplDVtdYU0bF6ZGnY2P0heIfXmoXDiuXo/lC4Xl1uYaw9fdtc3PG9/VK2kUh/ulblp6f2qc6wsp/BJTg1Xv2+gxffrCjPcl3E/Rz8K6WYkOQNflvoBD2hftk+ggYvuWljeLeihoO+aC3Bembvpo4v3Xl64OhMV+qapuu0+AyuouwaX+ztVjwYS/M0X8reud/pbsqQ5GgSsFKn7+3AF/0LJuc0qzaHr8cxe9Z3WNUzl1zdP+5BPWp/eoIFIY8JDwb0vC9xi+DwWJwjspS/g+dMJl6xVx11UDCf9ew78tfc5ek/ubFF0Z+eTc33Zjhrfm3tfel71vdTPUtmTT95/KnRD9p59H/fj3d051kyec5AYPHpykAKgXCgYePnzYfeKhn7gvfO+ZJLX5jE2ecNBIN7/T+aHunVCN9xSed8XnU+Xq7/3vr9+56tXFnHICAdX8ndXK+14/3n3o4rPdsGHDkpTqqGkPhZ4b1dCVs171NLSOPcdWjTY1sOyGcGqU/+ijc45rWKqbViW+CPvb8y919l7pV+NQjUc1ENUN7N53X+zTRY3XMBIbsvFeNk4tDCZI2hMt1Gi1sWjh1f9SfmYqHw7NeOxDv987Zk/7YWPOjO9NEY2fy0e/c3vPKlvJ33l4IyA1uP0NMJOhB9qOjcNT743wPRYzzs7KhePssoT16T0qyKP398Urp/tJ7zMMJqiRH77HMICgBn34PvQewvcRR85L8eBPnvZ/p6pL71vb0e9Sk953OUNmAACV0yw3ZcxHDbhGa8SpQVuN96QhmOHNnsNzn77o7/3vr9+56iy3V0G1fme1VKshkjUNKNCNs/5ZF67wCr5v3KSMnVLDUjeQqwfhjYUsUKLAgrrA21h5NSLfG/V4MFqnRqXK2ji1MJigrlZZ9ywIn+UsqqvYu/ma+MZINmZP+2G/E9VrgQG9v/AxjPmoa5vvJhbUX6nfuf6e7OaR4m+AmTL0QD+/8Gei4Fa54+zSxPWJ3t+CXANdk96n0c8xHoOnLnphL4jwfViPAdH76EuAzXqIGG1Hf6eawvddL4E8AGg0nOuiHLoYpIsX4UWsYp+OgOZVq++b2vdQ4Iu27llQQQ2o+GqrGqz6AtRQhqyGpRpkariFjbeYxrJZHjWiQpaeVj4sF4+Hk3DcVtjTwG4slDZmS8tZY6+sLtVrz/cNy6tBq59FvkZt+FxfKfVuvmL7H29ftA+2/xZ40KSgQhgMyCceIxkq5ndu24z3TXSDQd0IUz/78Hei+Xw/v3LH2WWx+j644fHUXgRKy/o7EDXgS30fWmc/l/jv1dLjcZ/6O9Owlqxxi+pRUi+BPABoJNxQFeVQjwRd5AkvXuic40PR8EkgVqvvnJreQ6Grq8vt3P0091BoQIyXO55+HsWW09X18B4HehJAXyPSfRlzVqyBNl6uP96zDYMpp85q/A6kWttBdXAPBaB+cQ8FlEOBhJ5ehq1OF9F04S6+2ASked/5492HLmmyeyjQDaxxqVHZSMEEUQOt3PdUSrlw3Lsi0pVoGGr7/d3A7K/febn73h/vWfWVW2c1fgdSre0AAPKjhwLKoR6SeqqEf7JY7pVgAopWo6+c2g95AOB7JWisnCZFpU3ajRsBNBEOk0Dd6r1wxucYQAOreQ8F+igAzl1y9it8F7dwvFxfb9gHoP4d7eYoCQAABq6aBhSEoC3QQzc31GQ3NCzmaQQAGhs9+YD65j/DxAUBVMmgQdVv3tc8oACg54kAGiun6bq7t5X8mEgAADDw+GEPxAUBVEkt7lHIPRQAAAAAAKhjals3XUDBI6gAAEA6DpFA3eLCWfN446tf4T552W+5LYtmuB/fcKm/yfa977nYXXPhq5IclaPtfPHK6X6yx1nLnNdO7E3XPJqP7rtUi++dmgYUfASlBlEUAAAAoD/1XinkVLdhjT1hqNuyaKbbsnCme/8lk90bzz7FN/J1k+05r53kvnTlRe5HH700tzw2KdF3qnfBhWf56YwTjwUUXjdxXG+65tGEWoLvnSriHgoAAAxUNESAukYvhcamQMIbz35FsuTc8wc73c/3vuhfjR4NrqBD2PgH+kWNzhkIKAAAAAAV1juemZhCQ9JwhvODngAf3PBtN37Fve7Vf3O/f73gE1/zwQUZe0Kr+9K7pvt5oN/kvmuabsgDAAAA0Ihq0fUY1XPpeZOSOecf+b364R8mSz2+u+c59967HkmW3HHBh5iGTlwz7VV+mnPexH7rzaDtqH7blu79gMbCkAcAANDraO4fXaaBOkdcoeG9cOjYEIfQgz/5tZt521Y/Xf7lh5PUY9TAv/c9l7inb7rCfeldF/np3ndf4n780Uv9TR0rFVgIt6P6bVsasqF7PPTHzSNRG/RQAAAAvVpy/7jKCdQnndgPGpQ71SYm2JBsOIOoQZ7V+H/oJ7/unUK6t8JjS38/84kMuvmiGvyVCCrE2wnv86D90M0jeTJEY6CHAgAAANAAdGJPQLBxrdv+s2Su5x4J6lWgx0Yu0dMeihhKcMNbzusNFny3/Tnfi2HoB+9yr7nx/lzdP/XpvrHfx3svKDBh23ly74t+O3afh4997Qc+Xb545UXJHOpWjb5uahpQoBsnAAAAGpHOc31AgZhCQ9I9Eq748sPH9VTQYyM/ddlv+Z4FGl6gRnpaDwMFCmyYgRr5s3KNfOvB8ORzL7r33r3NPfjjnuU3vvoU97o+PHbydROPlX3wJ786rqfEjf/xfffBjY/7ez28965tSSpQmpoGFIjaAgAAoBHpPJeLZ41t0w92+2CAehSEgQXRfQsWXPgq33PhL9/y2iS1x9tfe+yGjvfn6ng+5R4Mqtv05eaJ4SMs1VtBgQztm1n90BNu3aM/8/sBlKPmQx4IKgAAAKBhEVNoaNajQMMI9KhIXe3f9P3jG+ca3nBDEFRQDwVzzYVnuR/fcOnLpr/MlTEaUlGuOx/9WW+wwz++8sqLfO+Jxz70Vn/jxzjAAJSq5kMeiNwCAJCOK5xAfePCWXPRMAhd7b/iHx7290IIAwvvv2Ryb8M9bMBr/oxxI182hXn6cmPG5w92+F4UcZDj/AnjfI8FBRgezXNzSNSR3OlCLc4ZGPIAAMAApRMDjpVA/SIg2Lg0DMGmNOq5cN3d23qHHKh3wOnjegID4TCEj33t++7VN96fd/rQhseT3OXRvliQQ4+vvOXBXb33aBD1mND9HuipgHLUfMgDAABIRzABAAYe9RjQjRdtymqIq3fA8b0ReoYu6EaM5oyTRrqf5xr8+aa0eyyUQ4EF3Sth6ab/crNu3+oDDGHA49Lg3g6oT7U4b6h9QIHILQAA6ThEAsCAo3sSfLf9+WTJ+aBCPCxBgYRPXfbbyVKP7+15zr/qvgYmfKxjSEMRdJ8DPYry/D485eGLV07392TQfRPeePbxvSkUYAiFPSeAYtU+oMDVFwAA0nGIBOoaQx4a17pHf5rMOXf+xHE+qKCbHKoBr+lHH53jllxyTpLDuVsefKK3wa6eC1oW9QxQ2SWXTPbDJ66Z9iq3ZdFMf7NE3efgjHGj+tTQ//nel3rvyaBhDapX25lz3kQftLAeFOo18d32noAH6lfT3UOBL1kAALJxnATqG8OWGtctDz3hPva1HyRLPfchUG+DBRee5adwqMO67T9zSzcdfx8ELduNElX2U5f9lg8sfOldF/X2JFAg4UMbv+2HPZRLj4W03hTajoIIPvjx7kt8cMHc+LXv92k7GBiabsiD3jBftAAAAGhEnOc2thv/4/vugk/8u1u3/acv60Wg5Qd//Ct3+Zcfcu+9+5Ek9Xi6UaIeMxn3DFDZtbk6VfemH7QnqT3Uk0BDLuxRkEZlLD3cF/WGuOCT/+4+uOHx1DLaRz3uct1jx4ZhoD7pIkQtvnNa2tvba/ZN19XV5Xbuftq97Z97uvwAAIBj/v2dU93kCSe5wYMHJykA6oVO7Ds6OtzfPfhj94XvPZOkopGNHT7UjUluvFjq1f6+lC1FtbaD6nvf+ePdh9/4atfa2vP7rZaa91AAAAAAGhYjl5qGnsagRno5DfW+lC1FtbaD6msZVJseCjUNKAwalNs840MBAEjHIRKoa/7knutnAKqgVhfraxpQ6O7uTuYAAMDL0BAB6pq/sSqBQQANrKYBBTlKUAEAgFRHiSgAAIBi1OiUoeYBBR6JBQBAuhYubQJ1jSEPABpdzQMKAAAgG4F3oH7x+QXQ6Go/5CF5BQAAL8cTkYD6xecXQNW01OY7hyEPAAAAAADUMbWra9G2ZsgDAAADlG7K6B+xDKAu+ZN7rp0BqIKmfGykR1cwAAAy8YhloH4x5AFA1dTo66alvb29Zt90R44ccbv2POve/S8/5AsXAICArmyuefs5bsrEk93gwYOTVAD15PDhw+7vHvqx+8J3n0lSAKB//OlvvsIt/d2z3LBhw5KU6qhpQKGrq8u98MIL7le/+pXbv3//cUEFG/+hNM0XE3CwfHH+tPLqQqqrPrYdsTzFbq8Utp1w/+Lt5Ntu2jp7DzHLq0l5surMp5h9yZenWGl1WN3xfDHbzcoTLoe/+7R6lC5Z25CwbDH5Q1Y2a/sm3obmrVyYllaP0sK/7/A1/JuxsvZqaRLXWUhYR5p4G/F2Q+E+FKrXZNWZVp7Pf37F7Eu+PMVKq8PqjueL2W5WnnC5Xj7/CiCMGjXKveIVr3Bjx471+w2gvugzroDCJx76ifvC9wgoAOhf73v9eB9QGD58eJJSHTUNKOik7sCBAz6ocPDgwd6TLDvRCk+69CpxWrhO0pbDk2p7DU/GLb9ew0ZGWl3Fyipn+xLXHc7HjYS4rnjf0/YrLd3qScsf7ldYfzyvIFC4P8a2F6+zNNtmuA9huklLk7Cc2H7F+cNlzduyJpvXq4RpacL3LsXmjesP5zWl5QsVs904LVyO69WypvDnFeax+XCdXsN1Ji4bisvH7yOL5bd5Ww7r0qvEaeE6SVvWfujVliXt96VX+xlJWl3Fyipn+xLXHc7HP7O4rnjf0/YrLd3qScsf7ldYfzzP579w3rj+cF5TWr5Q+N5OOOEEN27cOP9KDwWgPh06dIiAAoCqUEDhQxef3Vw9FKSzs9N1dHT4E1VjJ1h28mUnXvkoT9bJXr7yWlfMSbK9SrwdWy9hvnLE28yi9fazCbcXlilUh7F8Yf74BNnSbVthvVa2WHF9YV1iaYXyhcIyki+vsTJxwyEW1m31hvOxeF3assR1ii3H6RKm5Vuftk6ULuG6rLxpwrxp5cL6Na+fqRpB9ndq6WnlbJ3YeqvD0vNJq9fkK691fP5fvk0+/8eEdVu94XwsXpe2LHGdYsv2qs+PTgqGDBnSWw5A/dDnWD0U/t+P97hv//xp19X7XZN87oOvEc3qY97zldCzIvcN71/tUXB+WUlWLll9LDFcmZPM+jVWuX/R94wCyce++3q/f5JKj+b+9W6vJyEpq7w9SZam//WU7UnS/1W/X+pJOFaP9JbL8fPHStq6nn3UTMpyjt8/X07bTs4VUssqjyQr/WxuPpfeW05J3UkZFVNW1THo2M+kt6rcjNKkJXf8CH+GEv7OjtNTpKe+XL2+ntw/20/NS8+2jqWrnt73k9Oz6Z596t0hzfvXHsrTkzsRrLa6e+rM/Y585p6fhdjvrec99hQ8ti9JRcmq3v3SsvSu7kk4th0rn3vJ/Zz1aml+f3yCL5GbtG3NWx3JPvoFzfbkP7aNnvVa8rsnuQVfb7J9OW5fku0kFR6/mOxfj2Mr/O4m5XvrTDIe21bPkqXrxfa3Zzl59XUeexG/FZ/flo7Vf1w9SrJyyWpLHDq01f326ePdRWef2nwBBbFfjL3Gwj8Cy9PzB3F8mXC9hOUknpe4TLHCcnEdWct6NbacVS7OW4pi6tVynB6mha9i+WJZ+QqVM2nlLU3i9RLWmVYuLC/xcpas8iZMT8ureclaNpYuheqLy5YirjPt1YTpxtaHaWmy8sX1SdY2JGs7ViYsa+XiutKWw7xxubhMscJycR1Zy3o1tpxVLs5bimLq1XKcHqaFr2L5Yln5CpUzaeUtTeL1EtaZVi4sL/FylqzyJkxPy6t5yVo2li7F1BfmB1Bf9HnWhbPnnnvOT+qtEH/WJV42lm7fA6WUKVa+/PG6YvfD0sJXCdMkzlcp+epLWxenlbI/heqzeb2Kzae9xsIyhYR1SVwmaxuhYvJkCbcf1pFVZ75taZ1klZOssiZf/YWEZbPqifcj3/bidYWWjaXrVQqV0TCHk046yQ+TbG1tTVKrY0AEFAAAAIBGoxuQa1jvSy+95OfjhoDm1VMqbhykNSJE6ZrSepGZuE69Wn2SViYUr7fthXXE0uoMt1tofRYrp9dwH5Rm79HmLT0tr80Xy8posm2EdVi6iZdt3uoQq0fi33n4XjSF27LlrNd8Ss2jee1L1s+6WLZ/4bymcF/CPCFLC38mEpY1aXVoWem2zsrF+bKE27PycT1p8yYuF+axNKP5tJ+t5U9L15T2+VdvxhEjRvhhkpqvJgIKAAAAQD/Qyb5O/m1or538hw2BcD5mjQe9FhLWo9ewTLgunDdxmpWN82Wx7Vk99mrzYmkmXpa0NGP1hOut8RvKV0epbJuiOsO60/bHpO1D1n7FdWo+fg1ZuiZbNprPavzHdaX97CRtm1lpUkzeLIXy2npN2l9J256kpSstXF8obzxfCeF+pG0j3/a0rtjPv34+yqfhksXkryQCCgAAAAAAoGQ9oR4AAAAAAIASEFAAAAAAAAAlI6AAAAAAAABKRkABAAAAAACUjIACAAAAAAAoGQEFAAAAAABQsrp8bKSe1Zn1vE6g3uhZsdV+Xmy94LOORsJnHQAANJq6DCh0dHT4CWgEgwYNciNGjEiWEDp06JA7cuRIsgTUtyFDhrjhw4cnSwAAAPWPIQ8AAAAAAKBkBBQAAAAAAEDJCCgAQB3Zv3+/27ZtW7IEAAAA1A73UABqjHsoZGumeygoSLBhwwa3fft2N3r0aDdx4kQ3c+ZMN2/evCSHc7nvazdnzhwfVLj55puPW4eBj3soAACARkMPBQCosWXLlrlrrrnGBxQUNNi5c6fbsmWLu/766938+fOTXM61tbUlcz1PDAAAAABqiR4KQI3RQyFbM/RQWL9+vQ8cyIIFC9zcuXP9/NatW93q1av9/OLFi92SJUv8vAIO+/btc1OnTvXLqB/0UABQSGdnp+vu7k6WADQrtQ+GDh2aLA1sBBTQZ+p+vWPHDjdp0iTfTRulIaCQrRkCCuqBoGEO06ZNc3feeWeS2uOmm25y69atc7NmzXK33XabT1MAQmbPnn1cjwV9Du+77z7/qmCDymzevNkv67Op+iUsL3GZUmi/d+/efVz9oqCHhnBo6IbVGe+L9kP59J0xffr0pvjuIKAAoBDOcQFIa2urn+oBAYUGoO7SoiubOjGvNm1fXbXTGkQojIBCtmYIKCxcuND3Rij28zN58mT/qrzWiNfwCH0O1WA3+j5Qg12Nfs2vWrXKp1v522+/3X3kIx95WRnLVwz77MflrNeFggQPPPCAT7PAifLu2rXLD+swyqf9mTJlSpLSmAgoACiEc1wAUk8BBe6h0AB0Qm9jr2vBriyGDRMAxbGeAmpsz5gxwzfGw8Z2Ifrcr1y50n/+9Flcvny5n1RfvnoUTFDvAQ2nsM+wvkdUrj8p+KEhG7af2rbegwIrfIcAAADUFwIK6DON7d64cSO9E4Ay6Ip9eH8EXdm/7LLLfHBBPQAKBQo1tMDy6DOo+zBo0ny+BrqCCepVYJ9fGz6hBn9/0s0kw/20ng16D6UEUgAA6E86huq4pEC/jrVpx1StX7RoUe89j4BmREChCekLcc2aNf7Lz8YxZ9EXqPIpv/JpUhlNxq6Eho0BjZe2usPt9XdjBahH6iWgoQG6Ym/DGPTZUY8BDRXI9xm1z5TKWU8D0Xy+IQThIyd1rwO7yaN6DxgNj4gnBTr6It7PcJnvBwDAQKBz1je96U0+wK9Av57EdMEFF/T2CDRr1671x65bb701SQGaDwGFJqMvSH0h6hn2+vLTl6QaCEoP6ctSDRl9gSqf8mtZAQaV0WQUONByWIfyK03r9Nx8256iuPpyTovyAs1MjWrrWfDEE0/4K/dKUzDB7pOSxj5LYSPdKFAw0IQ3kjS272EwAwCAWtANkXXOquOrAvMzZ87sDfYrgKAheka9/LRuxYoVSQrQfAgoNBH1ErAIqnU1VndrUXrY6+CWW27pHUttN1zTF6Yis6XQHerVWNAVWNuWejJoX4Bmpwa0Pnea4iCbPi8K6IluYpjFGuP5ejGUS4GNeLKbLFaSBRLSgiIAAFSLjkc6dxUFCzZt2uRvGqxgv3oRis6P7bis45bW2fEaaEYEFJqIfUGqoaIvRQsUWEPf1kuY1/LotdRn3yuqqy9afSlbUELyNZCAZqEeBArSxT18jH1O0q7qGxvWoBOcMKig+f6+waLRUypC+barvGHwRPtp7/Pcc8/1rwAA1EI4fNfOWY0uxukCmSajC2Tq6atevCHVozQNFbShEjreKa8mO15befVETCtTirD++Dxb9SrdLujFedUrQ9vUtpXX9g8oBgGFJqEvKftyuPbaa/2rUaNflEcn+hrWYOK8FnwoVhyAoGszcDydoIi6UeqEQgd79VjQAV33UBDdQDGL7oVgnyuV0QmIJg016m8WzNDnWdtWUESv+e6FYHn1PWPvU/Qe7LsIAIBaCM9bdUyLG9a6QKbJjn86b1aeMJ/mdWyz4LouHugYr0Z7nNfKK6+GBVsZpatMOUEFTfF5tqXHAX1N6pWsC4k2TFL7oOHJWgcUg4BCkwi/WOKrnZMmTUrmXt7Qj/OW2iU535VVAD0BBQvUKYBg9x+xkwo1sq2bZRqdANx2223+s6mDv05ANCkYGF9dqTQFM8IeEho6pX2wIEkavR99z6h7qN6n8ut7Qj2YAACoJR1TFTAQHdd0BV/BATXswwtu+ejigBruOi5rmKBN+Xrn6lioY6oNLbTjt11Y6E/ar3A/dUzWcTrf/ZuAEAGFJmFRxzRxECHMG0YyJc4LoG/0eVNjWkOD7F4jmtQoV5rGboasu2UY3NMVFZ0EKL8mzYddMkNp5UXbVPrs2bOTlMK07xpfqv3X/irwoWX1qFBdaYEFldE+qoy2aWNU+zv4AQBAMXT80jEqDJgrUK9AuAIM+a7c6zzZLgjo+GbHWr3mu8+Cjo3aroR5VZ9tT/Wq10Q85QtUFCPeTzt297VeNA8CCk1CXxDWWyC8+aJY9FN5bCqUF0BlqUGtg7pOYjSFj5AMKU948FfQT59TnewovyZbZychtixxeaMrI0ovZ9iBAgPaX52E6LtDAQ7VlRZQEG1bZfQ+04IbAADUko5RCnYrQG8BcNFxVT0W4gtuJkyPj23Tp09P5l7OghcmvLhn1ENCPQHjaceOHUmO8sTDk8PhjPmCJ4AhoNBAdLOztMilvgz0xWQn9/ryUeNDX0xab0ECNQAkzKt8GtOlfOF4MAADw9GjR3vvm2A3XNKkz6s++2rgK1gAAABKEwbAFVwQHVvjC25p4qBAX3v5KiChIHw89fWGxnYR0aQFM4B8CCg0EN0ILY5aarLoogIG1oVKjQ/Na70ogGDRVwnzWr2qJ99YbgDVpwO/hhDopEefUd2DQZOCf0qzdQAAID976oKC8jEdS63xnRUcCBvn8T0X7Hy8XNaTMZ7i3g1SypDleGhD+KQLzh9QDAIKDSAtWhlO4ZfBihUrfAPDAgh61XJaoEB5bVz2xo0b/XzaF4uNlw6vgioYobQ4apqWF0Df2D0U9DnVDRp1JcU+s3FXxlrRvSC0P/peAQBgINJ5qxr+dr8Cowa6ntJgDfWsXgEK8ttwRV2Ms8a5DVfoT2EwQz0o9D7i/U5jvZlFr+uSR8enDbsE0rTk/nCOJvN1o6Ojw0/oP/ri05fgRRdddFzkU5FbXf3UF+ajjz6apKIvBg0a5EaMGJEsIXTo0CF35MiRZAmob0OGDHHDhw9PlgDg5TjHrb14iK8upukKvzXKFahX0F7UGFegQHkUNBc1ym3YYUgX02yohF2ks/JqvOsCntF5uPUUtrzFWLhwoR8CHbKy2h9d1FOvBs2rJ4bY+9NT33bv3t37PkvZLiqvtbXVT/WAHgpIpWEOChzoC1GPjdEXoIZJKE3C4REAAABAI1DDXo3usCGuRrZ6ACg9bPinUTnl0bmyAgWa1DtPjfn+Ft5AUhT8sEdLZ1EZ7aMuJOp92v4TTECx6KGAVIpUKoAQP9VBX6aKsHIvhcqhh0I2eiigkdBDAUAhnOMOLGpg2/0H+trALrfXQbksCJIm7KFg+2LvlUDCwFBPPRQIKCAvfeHYpC8l3WE268sJ5SGgkI2AAhoJAQUAhXCOW/90zwJdkFPvAF39t8b6Rz7yET8cQctqxNdSWkABAwsBhX7Gly0aCQGFbAQU0EgIKAAohHPc+qehAxoyrCCCqLGuBrzootzHP/5xN3PmTL9cKwQUBr56CihwDwUAAAAAqAD1TNi0aVPvPRRENzjXk9WUXutggiiwof3TpButA31BDwWgxuihkI0eCmgk9FAAUAjnuACEHgoAAAAAAKChEVAAAAAAAAAlI6AAAAAAAABKRkABAAAAAACUjIACAAAAAAAoGQEFAAAAAABQMgIKAAAAAACgZAQUAAAAAABAyZoyoDB//ny3fft2P79+/Xq3bNkyPw+gscyYMcO1t7f7+dWrV/sJAAAAQGUMXrp06V8n83Wjq6vLT+XasGGDmz59ups4caLbuXOnb3Bo+fOf/7xf19LS4s466ywfbFi7dq3bt2+fmzp1qm+M7Nq1y/30pz91W7Zs8eW0ftKkSe7kk092a9ascXfffXdv/pUrV7qf/OQn7t/+7d/csGHDfHmrW+W1PcuL5qW/iaFDhyZLCB05csR1d3cnS6XT53PevHlu9OjRvUHEc889133yk590X/3qV/1nT+vSPrvf+c533P79+326Psd6tfz6LOu7wvIrKLl79+7jPuv2vRB/j6B5DRo0yA0ZMiRZAoCX6+s5LoDGMHjwYD/VA4Y8JB555BHf4FiyZIlvGChYcOutt/plNf61TpMaGAo+aF4NQc3fdNNNPr+WlV/ltKxyp512mm9IqMEya9as3rxqsCiv6lE+ANWhz6I+g/r8KUC4efNm/zlcsGCBDxIoTZ9JfZ4VAND8mDFjXFtbm//cqqyCBcqvZVE5BSr03aH8+l5QUGHbtm1u3bp1flvKo+0AAAAAjYKAQsJ6LCxcuNA3GNQQUCBAVx4VRDDTpk3z+USvWlZ+URk1IlTOTJkyxedTw8SuTu7YsaO3bpUN6wfQv9Rj4ejRo27RokX+s6gAgiYLDtjnd+7cub2fdX3OFRC0dQpCqNdBSHnUe0Gfec0rrz7f9lkHAAAAGk1TBhR0sq/GgK4krlu3zgcTNPRBDf7ly5f7dF2B1KRlpauhkI+CCcqjq5aFaHuqe/HixccFGgBUlgICChRo2IF6COhzZ591BRS2bt3qP4/67Npn3YIIWRRMUH4FHAoFA7W9sO5C3yMAAABAPWnKeyioAdHR0eG++93v+quOahjoxP9nP/uZ75Kc+5m417/+9f5eBxoTrYbAxRdf7MuGjQLNqxu0xky/7W1vc08//bR74okn3B/8wR/47s+tra3uN3/zN/161a+Giua1/fPPP9/XrTTtA5oX91DI1td7KOizpZ+veiC8733v88u6r4E++/q8W0Nfn8uHH37YzyvgqB4M9tkN5/XZ12dd5YcPH+4uvPBC/10h+lzL2Wef7beh9dpeWLd9j6A5cQ8FAIVwDwUAUk/3UGhpb28/mszXDQUDNAGNQI2MESNGJEsIHTp0yAcVgEagYIICTQCQhXNcAKIL05rqAfdQAAAAAAAAJSOgAAAAAAAASkZAAQAAAAAAlKzp7qGgxzqedNJJyRJQvCeffNLfZE837ask7qGQrdx7KOhGiqtWrXJnnHFGkgIUTzfdXLJkib+ZbiVxDwUAhXAPBQBST/dQaKqAgu6aq4DC7bffnqQAxfvmN7/pnwzwO7/zO/7JAZVCQCFbuQEFfdbvuOMO95nPfCZJAYq3Zs0a/wSe008/vaKfdQIKAAohoABAuCnjAKXHz3HHePSFGqq6+o2BS78ffc557Bb64vDhw8kcAAAAsjRdQIFGBvpCDVX9HWFgU1CBzzr6guAhAABAYU0VUNDJISeI6Av9/VSyCzT6B59zAAAAoP81VUBBDUEag0Dj43OOSiAwBQAAkB+PjQTQcGgIoq8IQAMAABTWdAEFGhroK/6GgMbH5xwAAKCwpgko6OSQE0RUAlctBz5+R6gEjhkAAAD5NU1Age6rQPOgIYi+0t8QxwwAAID8mmrIAyeIqAQaq0Dj07GCzzoAAEB+3JQRKBFBKaA58FkHAADIj5syAmg4NAQBACjNmjVr3P79+/389u3b/QQAhTRVQEGNDBoa6CuCUgMfvyMAAEqzbt06t2/fPj+/bds2P4mCDBZoMLt3707meuYtj6UXm9+WQ/EygIGt6e6hAPQVQSkAANAMtmzZ4hYuXOg+8pGPuLVr17r29nY3Z84ct3LlSjdjxgwfFLjmmmt8mvJqfv78+X45zn/ZZZf5OufOnevre9Ob3uTrVpnVq1f7usK8cVACwMDUNAEFBRMGDeKWEegbBRMITA18BH0AAOg7a9TPmzfPTZ8+3W3evNlNnDjRzZo1y7/asIjbb7/dBwpkxYoV7vrrr/cBBuVZsmSJmzZtWm/PA/WCUH7Voenmm2/29TzyyCP++K20trY2vy0AA19TtbC7u7tpDKJP+PupD/yeUAn8HQFoNupREL6qcb9gwQK3a9cut2zZMp8mkyZN8ukKFIgCAEbzo0eP9vPr16/3k4IRhSh4MWHChN66iykDoPaaJqCgiKdNQLn4+xn4+B0BAFA69SRQ0EDDDdRjQL0S1MtAQxB0PwUFD5S2Z88eP5zh1ltv7b3nQhYFBxSM2LBhQ5KSTcEL5bW6AdSHlvb29rq7BNPR0eGnUuhKk8ps3brVfetb33JdXV3JmmMNkP66GqX6+6tu1Wv197UhlVZHqfVWYj8Ggvh9aH7o0KHuHe94h5syZYobPHhwsqbvNBRnxIgRyRJChw4dckeOHEmWiqPfncrdf//97nvf+57vmZSP/Z5Vrj+o/v6q2/5O47/XcqTVUWq9ldiPWtP+t7a2uve+973+SlklP+tDhgxxw4cPT5YA4OXKOcetNPVO0FAFY8Mewl4IcZ580srnU0rdQKPSuYimetA0AQVRmWeffda98MILfl4nv6ITSDsRtjRjJ8dxepbwhDqsL63ucmTVH7M8km8fLF+YRw2wsHy+cpJVvy2nlQ+F69Pm4/Jp6bZswnWWHuaxdRLmlXhZlKZG/8knn+y78VXyfhwEFLKVG1A4fPiw27t3r3v++eddZ2dnsqZH/Ddgv++s37vE6VmsHgnrS6u7HFn1xyyP5NsHyxfmafbPvwII+jyedNJJ/uS3kp91AgoACin3HBdAYyGg0M/K/bJVw+TgwYPuxRdf9PNpJ5eh+ERTssqk5ZUwPWtessrnozIS11mormK3FebLV0brpJi8Ji5jit2m5MubVX+prF696kM9cuRI3yAgoFAd5QQUREEEfdZfeumlzPKF/kbivynJKpOWV8L0rHnJKp+PykhcZ6G6it1WmC9fGa2TYvKauIwpdpuSL29W/cXQ51Gf9VGjRlW88U9AAUAhBBQACAGFftaXL1s1LnQFzrpBxyelkrZs86UK6w9ZnWl159teuC6el7BcVj2WVyfONl+qrLpNuF6v4c87TVyfLWdtJyu/SSufNS9aNmn1iH5emirZBVoIKGQrN6Cg35uGNWmKf9div2+lh/OSthyXL1ZYf8jqTKs73/bCdfG8hOWy6rG8fP6Pz2+Ubp9zvVYSAQUAhRBQACAEFPoZX7ZoJAQUspUbUAAGIgIKAArhHBeA1FNAoWme8gAAAAAAACqHgAIAAAAAACgZAQUADWfnzp1u/fr1vZOek7169epkLQAAAIBKIKAAoOFs2bLFT7rBniY96nP69OnJ2mPPxJbdu3cnc87Nnz/fbd++PVk6JswvWk5Ls9dwXVpeAAAAoBFwU0agxrgpY7Zyb8qo3ghqxF9zzTVuzJgxvoeCggV33nmnf504caK79tpr3S233OLnd+3a5ZYvX+6WLVvmlzdt2uTrUe+GdevW+acAqD6lr1mzxgcdct+dbvHixT7f2rVrfdBCedra2vy622+/3QcrtE7bnzdvnluwYIHPj+bETRkBFNJf57g6dhHcBkoze/ZsN2XKlGSpunjKQz8joIBGQkAhW18CChs2bPDBgalTp/qGvAUULrvsMvfoo4/6Rr/mr7/+ejdp0iQ3bdo0n2fJkiV+XhRQ2Lp1q7vtttvcwoULfRBCdW7btq23J4PyWkDiwgsv9HUrMKF0BRNmzZrly9x8881+HZoXAQUAhfTHOa4e3avj30033ZSkACjkySefdHfddZe/IBQ+arpaeMoDANTY3Llz/QmUGvoh9SAQ9ShQ7wNdsVGwIOvKTZhflFcHljBibXnsNaRghSYFLgAAqCb1sOvs7PSvAEqji1oKyCE/AgoAmpJOrtTI1w0cLVigXgUrV67081mUV/dnUM+FQhTVVm8JTerFAABAtalRREABKJ2CcQQUCmPIA1BjDHnIVu6Qh1Jo6IOGJJh4OU0xeYx6PugeCsXmR+NiyAOAQip9jqvG0IsvvujuvfdeP/QOQHE05OGLX/yie9e73lWToQcMeQCAOhE39Itp+JcSHNAwCIIJAIBa0BA9eicA5anFvRPqEQEFAAAAoEHRKALKo2Acn5/CmjagMGPGDH9Hd93lvZix0P1Bj/DRBAAAAFSaGkT0UADQn5r2HgqTJ092TzzxhL8hm55Vr8e56RFxunHa9OnT3cyZM/2j4fToOd2oTTdXU14t6+7udrM1PWJO5XQXd3Vr1qPkdHd5BQr27NnjH1endD0+Tl/oeoSdxl9rOzauWnWgeXEPhWzl3kNBN03U5xUohx4PmvbEjr7iHgoACumPeygcOHDA3XfffdxDASiB3UPhyiuvdEOHDk1Sq6ee7qHQ1AEF9UxQo0NfsHq8nIIFCiQsWrTIPfDAA/6Z8hs3bvQBA51gXn311W7FihW+jIIOep6vlj/ykY/4QIECDwoo6ERU3WP0/Hk9j37Tpk3uggsu8I+vUx7Vr3kFJJSHgEJzI6CQrZyAggJ3n/vc59ynP/3pJAUonoLBp512mp8qjYACgEIIKAADAwGF4jX1PRT0yDgFFW677Ta/vGPHDt+TQD0HRMMh9Mx59SiQ2bNn+yCArn4qaKDggPVOUI8DBROUR/MKFGi98ll96q2gYITStV4TgMrq6urq9ydDoLHxmCgAAMD9E4rT1AEF9UpYtWqV712gwICeL69Gvz3mTX9EWq+AgoIFSlPPAgUJtKxeCiqnwIB6MyjQoGCBJs1ryITqsmfci4IP1jOCLtlA5SmYQGMQfVHJq4MAUEs0iAD0t8FLly7962S+bugKpKa+UkDAWC8D3fdAwx607plnnnFf/epX3bnnnuufQXr48GE/LOLss8/291A466yzfJoCCppXvvPPP98HKBQsUNBBAQh7ZJzq1Pz48eN9vZdcconPa+vRnHSwr0VXqnpQTnBAV5cfe+wx97a3vS1JAYr3ne98xw9LOPnkkyt+Iq7hTRr2AABZKnWOG1KQVOel9IwFivf888+7xx9/3L3uda/zx+9qGzx4sJ/qQdPeQwEYKLiHQrZS76Gg+yeozB133OFuv/32JBUonu6hMG7cOHfOOedU/EDOPRQAFFLpc1wdF9VblnsoAKWxeyjoonIt7mXAPRQAoAbo2olK4W8JQCPgkZEA+hsBBQANgxMnVAp/SwAaAcFRAP2NgAIAABFOwgEAAOcDhRFQANBQ+OJHJdBDAQAAoLCmuykjj2tEX8yePds/NrSSuCljNm7KiGqzmzJOnjy54nd15qaMAArpj5syHjhwwN17773clBEogW7K+KUvfcnflLEWT2Orp5syNlVAQV+qq1evdh/60IeSFKB43/zmN/1d38PHjVYCAYVsBBRQbQQUANRSpQMKevTyiy++SEABKBFPeShe0wQU1NDQc30VUPj7v//7JBUongIKP/3pT93v/M7vVLShQUAhW6kBBTl48CABBZSNgAKAWqp0QEHnvzw2EigdAYXiNdU9FBSl7ezsTJaA0lXyII/K04kTAAAA0Ffcl6s4TRNQ0B+EAgo0ONAX+vvR3xGAxsVxAkCj0PcZjSKgPHx+itM0AQX7g+BEEX2hvyG+WAYufjeohEoPdQCAWuG4CJSPz09xmu6siT8MoHERMEQl0AsJQKPguAiUj89PcZpqyAN/FOgr/Q0RlAIaG8cLAI2CcxYA/a2pnvKgMp/+9Kfdl7/85SQVKJ6e8rBz5073e7/3e/7xkZXCUx6ylfvYyI9//OPuzW9+c5IKFE+f83nz5rlzzjmHpzwAqLpyznHzUY+rAwcO8JQHoET2lIcrr7zSDR06NEmtHh4b2c/K/bJVQ+Ozn/2s+9KXvpSkAMWzgMIb3/hG3zCoFAIK2coNKPz85z93u3fvLvmRk2JXpzXFV3biK9dZy3F6IWn5w7RS6ytGuJ96rYRy6yrn/fXHz0R16rN43nnnudGjRxNQAFB1/RFQePHFF92tt95a8Obk9h2e9l1u5bLWS5ge5pd4Xb56xMpLmCetHpuXrLxpwm1IvrpChbZr0tbFZfNtQ7LqzSqXJW274TbCtDhfKC1N4nQtS1ZeibeTli5xvWnr0+oI08IyNp/F8uji4W/91m+5GTNmEFAogIACUCQCCtVXTkBBj4Z9/vnn/XO3Na80yTqYhMs2H6bZcijOF+YP0/S71WvIli1/LCyflicsb/nCvOH6UFrefCyfXtPeR8zyx9ux5Sy2TvlCVj6NrcuXR+k6ebb1YX57DdeL3ucJJ5zgxowZ40aNGkVAAUDVVTqgoO879VB49tln/XGxq6srWZP9vavXLOF6m49fY2ll4nlJK1+oznz15VNM3kJ58q0vtM4oTzH1xHkKLRul27q0ekLhOpuPX2NpZWzexOWy6grly2PrsvKE6ZoPxeXCuiScHzZsmDvppJPc2LFjCSgUQEABKBJDHqqv1ICC6GTJviM0Hx44Qmnp4QFFwjy2TtLqy2J1FHrNovVpwjJhXVKo3kLbjGXlT0svtA+WFr+aQuXzCcvG8q0TW6+TBp1E9MfJAwEFAIWUe46bRd95Cq4rmKBjqh0XTfhda69ZQeQwLfxODctnKZRP6eF2w/xSzDZCYd6scmHdMaUp6GzzsbhOW45fjZbz/Vwtb1g+K78Jy4nmtc/F/Bxt3mSllZonTVo50bKtC6VtN20bYbq9xhcKYvH2LG/aNnQeMHLkSH+OXsnz/mIRUOhn5X7ZHj58mHsooGwEFKqvnICC6MBgkw4Q4auEBw1bZ9LyxuXiPKF8ZdPmTZymZVGarUvLk2+95Csj8bwUs5w2n8XypOUtVD4sK/F8mrQyoULl9Zm0PJVEQAFAIZUOKIgaWQokWO8E+44Mhd+ZIUu3/HGeuFyYP3wN18Wy0rOEdev72hqR+erROgnXZ+VPy2usjOUJFcofr09LS5NVh5aLef9KlzhPVn4J11m5uGy8bQnXx/OWR8J1IcuXVo+E9dhrVl4J84TrLV2yymtex+1aBBOEgEI/K+fLVn8kKvOZz3yGHgooCwGF6is3oAAMRAQUABTSHwGFLHEDqt7V8/tptN+FNOJ7qqZ6Cig01WMjgb7S35G+IAEAAOpZo50b1/P7acR2Cm2v5tE0AQU1Am0CysXfDwAAAAD0aJqAgihSRrQMfcHfEAAAAAD0aLohD1xhRl/w91M/2tvb3fz585Ol4qjMhg0bkiUAAAAA+TTlYyMvvvjiJAUo3pNPPulOOeUUbspYRX25KaMFFB544IEkxfmbam7ZssVNnDjRzZs3zz9G67777vOvWl6/fr0PKKxYscIHj0aPHu22bdvm16mM5rdv395bXvknTZrk06dNm+bXnXvuuW7mzJl++1pveQFuygigkGrelDGLjoltbW3JEoBa4CkP/azcL1s9NlKNwt27d/tn8op6LlT7qrO2F3ebD/cjXG9pcf6QlQ3rkLAeideXIq6rGGn7o8azpdlrqfWavrwfUdl8247rV6P/jDPO8A1IAgrVUemAwurVq93UqVN9UEEBAAUYFDTQ71SvL7zwglu3bp277bbbfN59+/a56dOnu1tvvdU9+uijbtmyZW7WrFl+3cc//nF30003+fUqt3XrVrd8+XJ3/fXX+7yXXXaZW7x4sQ82aJsEFUBAAUAhtQgozJgxI5lz7pprrnF79uzxxzYFx7PoGKsg+ty5c5MUAJVEQKGflftlqzJqIOjk3wIKWY3KON2WwwZm1vq4vqy0UKEyaXXErM5829I6qyvMn1a/lu35sqG0vFlpUmy6WD3xaygtTaxek1XepG0jnjdq9J9wwglu7NixbtSoUX65UggoZOuPgIKCCLr6opMgBRHWrl3r1y1ZssT/zhU8uPPOO33wQEEHBQImT57snnjiCbdy5UofkFTd6sWg+lROaTqxWrVqlc+rbc6ZM8cHEkSvCjaguRFQAFBILQIKdowzCror0K5jm86JdO6s4+HmzZv9+ssvv9zdcsstPpCu457WyZo1a3w5HWetZ5/K7Nq1ywcolE95dOzVcVgBevXks7xxL0CgmRFQ6Gflftl2dXX5cgompDVS8jUsbT6ktLDRGS+buLzly6pX8q3L2k4+aWXybcOE5Yqpw9aHPREqLd5mMdL2PY3ls23Ysl7VK2HYsGF+qiQCCtkqEVC4+eab/bJOYBYtWuQb+xYsEA1ReOSRR3yvAvUoUA8DBRTU+yAMKGzcuLF33dVXX503oGA9FNTTQSdWOsGy7aF5EVAAUEitAgo6/omOeTq26Zil45qCCQogKBAwe/Zsf06kIPmOHTv8cVHHOQUARD0dVF4X7tTLQYF0Be0VOFi4cKH7xje+4YPtyqNAg8op0KAAho6fOmarjLavYyzHTTQzAgr9rNwvW2tQZl11j1ljshhWn+UPy+abl3AbYVqY1+QrI1bOZNUjli/+eWTlF1uXL08ozC/hvLF6wjyhrPSQbSeel3idaLlQvnCdKM2mSiKgkK0vAQWdBKlHgbn22mv91Q818BVEmDJlij+Z0YmLKDBgywoAiJZ1QqMAhE52tE6BCq3XCZICERdddJHfltLV68Hy6kRMV14UyFiwYEHvCReaFwEFAIXUKqCgYLkoWGABdR3H9KoAgO4vpGOaqLGvoIH16DMKKGhZQXat07FQx2GdT6muTZs29fYc1PHUAgpKU0BDZZSmY6qO2QynQDMjoNDPavFlC/QXAgrZ+hJQAAYaAgoACqlVQCEc8mC9+MKAggIAelVQwQLo6gGoAILdwDEOKCiP6lDAXj0T8gUULGivHgoK/CudQDyaWT0FFAYvXbr0r5P5uqGhC5qARqAeD0OHDk2WEFIwQT1ogEag4KGCCgCQpRbnuAoQqNed0f0N1BNPPez0qoa95j/xiU/4YIf16FM5ncOcddZZvpyWL7nkEj801O5V9PDDD/vhD8qjdc8884x/2tqBAwfc+PHjfT1Ke9e73uXr+upXv+pfw/0BmpGGWlfyJvD9iR4KQI3RQyEbPRTQSOihAKAQznEBSD31UKjcreoHqP2Hu9yKb/zMvw5E2q87v/+rZOnlbntsj9v17EvJ0jHrcmX0vh742fNJysut+tZT7tE9+1PrX/V/n0rmjnngZ8+5PftLP4hpGyqrCQAAAADQHBq+h8LGJ55xtz/2327O5JPcogsmuO25xq8a8RNHt7p9uVc1hi/LrZvY1nPnfq2fNqHNN+InjhrmduZeLc/o1iF+Weu35hryM1811pfZf/iI2/DDZ3PrB+fynezX+fSOI37ZKL39wGE388yxfnsKCmgbd37/1+6mN53h2nONeW1L9Sqvtqm0qSeN8Nvds/+wr0d13v7YHjf/vFPc5ffucP9x1Xk+Pd6PN//T990/XHpObj9y73dU63HrZufWbc6V03b0ftqGDfbBC+1Xe2479jPRPlqZrJ/dxiee9eX189EySkMPhWzl9lDQXadtTCdQiieffNK95z3v8d1wK30DVnooACiEHgoApJ56KDR8QGHJ137iFl04wa36v79way6d7JZ/40nfUJ75qjG5BvR/u0UXvNK/rn7L2T7/tff/0DfuV+TyKQCx4hs/d7e89Sz3/lw9t+Ty9DT+z+xtkIsa1qKGtRrU2say3znN5132hkluykkjfCN90xN7XVuuca5gxYS21lzjvNuNzjXE1VBXua1PPu8b/u0HOnJlTvCN930dXW5uRp3qZTB62BC3MPce5Nr7n/BBhieePejr0/Lf5PZV+6fAxKQkaKK6b/7WUz5PS+6flVdAQT0UevatK/dzyv0R64Q69xeyr+OIr0M/u2kTRrl1uf2If3YoDwGFbOUEFHTPhc997nPuM5/5TJICFE+PRlMw4YwzzkhSKoeAAoBCCCgAEIY8DBBqxD/63/t9MOHRPQd6G/6XTT7R7XrmoNuzr8Pd+b1f9zScE/PPe4UPDORa0mpHuwtzjWc13tXIVuM+jQICKqMGtyZRLwOVVcPcqJfB9tz+iPIpqDHjzDF+WdRzYcrJI3yD/8IJbb5nQUh1WmNf7y0MJkhPnWNz72G8a2s9/lerMnNy71vrtF9y5/ef7p032q5te+ezB/178701kmCEfnbaTtrPDhgIOjs7uWkr+kQn89wMFAAAoLCGDigogKCr6OqZoF4FahwbNd7VTV89BnzkIKHu/9bTQEMNFHhQTwD1JtCy6lRvgbCxrzzW0M+iPKIeCKLt6Cq/pnJoeIGCCqFrzjvF79u19/8ot3/Hnwxre6u+tdv3wNj1bM++rL9iavLe0vdbZUQ/Hg17MFk/O6DW9KxrTQQU0BfcCBQAAKA4DT3kwRrKavyK7kHQlmuI27K/0n/gsO+BYNRIV6N7/RXn9ubTFXrLY3Xq/ggTkqv2YvdcEFuXtX1RWliXpZtwvaTVqXmr24TvUfNWpme5wwcB4nVi9YXz9hpuW2mi+fhnh/Iw5CFbqUMeFExQmTvuuMPdfvvtSSpQPA15OPHEE91rXvOaij+uiSEPAAphyAMA4R4K/aw/v2x1k0Ld10Dd/oFqIKCQrZyAwuHDh/09FAgooBwKKIwbN85NnjzZfzYriYACgEIIKAAQ7qFQx3rufUAwAahXCioAfcHfEAAAQHHooQDUGD0UspXzlIeDBw8y5AFlUw+FsWPH+h4KDHkAUG2VPsfdvHmz27lzp/9eA1CcH/3oR+7GG29MlmqDIQ/9jIACGgkBhWzcQwHVZkMezjnnHAIKAKqukue4elrNfffd56666ip35plnJqkAClmxYoW7+uqrK34eUAqGPAAAUKdaWlr8BAD1TAEFPUoZQGn02VFgjyGQxSGgAKCh0BBEX3ECAaARqFHEY5SB0uk8QJ8dzgeKQ0ABQMNQMIEvf1QCf0cAGgHfZUB5CMYVj4ACgIbBiRMqhZ4uAAA0L4Y/Fq+hb8p49MiLzu39VrKEkgwZ5VpGvy73OjJJQH/hpozZeMoDqo2bMgKopUrelPHw4cPunnvucddddx03ZQRKsGzZMnfFFVe4UaNG+fP0WuApD/2smC9bXansfuof3dH2f0pSUKqWUy9zg1/1Z8kS+gsBhWw85QHVRkABQC1VMqCgeu6++24CCkCJCCiUpmGHPKhhwdiXvunu3O9v6AMAzYZujgDqHcMAAVRDQwYU9AWqx+R0HuFROX2hgEyp3c0BAABQewRGgfLx+SleQ/dQ4Op633Qf7fY/QyLcqBd8+QMAAKCvaEcWryHvoaAGsG5E0/nzte6EvRuSVJSqY/QlbtDZH3TDhg2jodaPuIdCtnLvoXDXXXe5X/7yl70HA6Xb33A4H4rTC5VRmtE6y2Ppafmz0uK6JKwnLBvnDdeFstIlri/Ml69cGstfaHsSblOsnM2bsE5Jmw/zpwnrSMsbrjdafumll9yf/dmfuYkTJ3IPBQBVxz0UgNrjHgqladiAgm+I/HydO+E5Agrl6hhziRt01gc5Ae5nBBSylRpQED3lYe/eve65557zQ58kbFjGDchQmCd8jddJvnxiy2EZifPG621ZfxcKiNiylZG4XNq6cD5OM2E5CfOFrExYV/gaylqnZbF18XwoLB/WE+bNSsvKE9aVVUavOnk4+eSTXVtbW8VPIggoACikkgEFHQMVYCegAJSGgEJp6KGATPRQqA4CCtnKCSjoBOrFF1/0V5pV1hqV+cR/31lllM/WWZl8eU1YJs6flmbCbcTbC+sXy5NVVyiuy6SVt7S4TJielmZsXSxffRKmS1Y9YmVjaXWGaeGr6LOo7zsFE9Twt3KVQkABQCGVDCioHnooAKUjoFAaeiggkwUUOAHuXwQUspUTUNDnX0GF8P4fYaPRGol29b9YYR2ieSsfzqeJy5qsdLF1aXnylQtZeQnLhOkxW1dMHgnrLZbKlPLzV/36nJSzHdvXsGzWPitdkxr+lR7uIAQUABRCQAGoPQIKpWnsHgpPriWg0Af0UKgOAgrZygkolMsaniZctsanluP58FWy8haSljesX4qpJ1RsOcsnadvPEu5fWr609KxtxQpt21h9hfIWW19/IqAAoBACCkDtWUBBPRZrde5QTwGF2oRcqsCfZNb23LH+8fNDE4kPGOGy5m05ng9fJV4frssnLW859YSKLWf54ryFytr6rHxp6UqzKZ9C600xdUmx9QEAAEh4EQTZGjag4E8ea/A3MPLUi1zb6bPd0FGTkpTjDWod7YadeG6yVNhJ5747V6YtWaoyPkOoc9u2beud2tvbk9TibN++3U8qV2pZAAAA1C+CCcVr7B4KVXbqtBvcmLPnubbTZrsz3/KVJPV4o3PrTpr67mSpsI79u113x3532ow73LATpyapVZJc0OPKHuqRggCLFy8+LjBQKnV1W716tQ9IAAAAoDnQ/ileY/dQqPLfwYhTprtDz+10e/7vX7g9//kXPu01lz/kX0efPtudOu2jfl69FxRw0Dr1PlAgYsIb/tZNvvI77rQ33eHOevu/+klOOvc9bviJ57rh46a6V154Q+16KwB1SAGBJUuW+GnatGnupptucgsXLnQXXHCBW7lypZszZ46bMWOG279/vw8czJ8/30+7du1yO3bsIJAAAKhbXGEFUA2N3UOhyt+jT33jT93IUy7ygYJRp8/2aTb0YdDQ0blpjJ/v6njBPfn1P3b7f7HZjT37Cr9O8//9fz+c2+Wj7qf/8oducOtoX3boqInu0N4drvNAu/v1dz7reysAKI56JShgoEm9FBQ4mD59urvzzjvdzp073aZNm3zQYd++fW7q1Klu+fLlfnnz5s0+ryYAAOoRV1iBvuEzVJyGDSjUgoIDCir86L5L3KhTp2feR8GCAl0d+3zgwOa7cukDMWBAhBv1auLEie6BBx7wk3ooiAIGo0f3fO7E5tVjQUEHAAAAgDZQcQgoVJB6E5zxlq/4YQstraNd54Hd7qVfbvPLY199RZLLuRGnTk/SLnfP/+TeJDU/9VIY//oPMOQBKIF6GOjRP5q2bNmSpKZTYEE9FeiVAAAAABSnpb29ve5CL4We0ato0uHDh13nz9e6E/ZuSFKrY/i4nic4HHpuh38VpXW8+FSy1OOEcb/hDj73//keCRYksHm9Dh05yXW+uLv3VVRPWG9/6xh9iWs568/dCSeckKSgPwwaNMiNGDEiWULo0KFD7siRI8lS6cIbMYa9EtRLQevUg0EBBFtWQGHSpPSeRcoD9MWQIUPc8OHDkyUAeLlC57ilUD133323u+6669yZZ56ZpAIoRBeirrjiCjdq1Ch/nl4Lra2tfqoH3EOhwtTgjxv9WlaQIJxe/NUj/lUszebFggj2KtUMJhiNHaK7D+qVAgY2KSBgk62TcFn3UQjzhRMAAACA4zHkAdmS+5BwQxIAAAAAQKxhhzz4rtI/X+dOeK66Qx4aSceYS9ygsz7ohg0bRlChHzHkIVtfhzwAAwlDHgAU0h9DHk4++WQ3duzYJBVAIV//+tfd0qVLGfJQpMYOKPxiXdXvodBICChUBwGFbOUGFPS0ht27jw0XAkoxe/bsfhnmQkABQCGVDig89dRT7he/+IW/t5jYMFY7r0tbDs/50pZFaeE6m89Kkzg9nI9fTb7lfGUkTJNCdUkp68Xy2PpQmG7zcXmTtS5OD5dtPu1VwrSY5ZE4X7yuHFaf1RXPS5gnX5rEeUxczsTLYuXS8oX59ar7br32ta91I0eOJKBQBHooIBMBheogoJCtnICCPv+f+9zn3Ac+8IEkBSjexo0b3XnnnedOO+20JKVyCCgAKKSSAYXOzk5/s+Hnn3++N6AQN6bE0mzZKD1Ok2LS8+URrStUT5w3FJYL85m0usM64nUmLmfLmnS+ZuvibabVbWXjOtOk5UkrH+fLKidZ+Ww+X758eUKWz4TLcR3G0sJ8JqxLwnySVi5tfVadhcroVcdqBRLGjRvnb0wf1lVNBBT6WTEBBf+UhyfXElDoAz3lYdDZBBT6GwGFbKUGFPTZ7+7u9gGFz372s0kqULw1a9a4V77ylf6O6JX+3iOgAKCQSgYUdDzU+bCmrq6uJPXlwsZU+L0XL9eS7V9/KvR+w30odX+s7vg1XJdPvjxK1+/a6rU0U2r9cf6w3nzybSdf/SZOt+V8+SVtXSysI199Stc0dOhQH0zQcbtWCCj0s2ICCvRQ6Dt6KFQHAYVs5QQU9N2ggMJtt92WpALFU0DhpJNOcq95zWsq3s2RgAKAQioZUBAdF22yZQkbV0Zp4XrNh1flRfNxPgnziOUJX01Y1uZtO3FeE6bH5dPqNnGetPzhsonLmLi+UFqZOJ/liV9NVroozWSVDaXVG87Hr7YuFK8XyxOWCdfHbH1cTkqtS6yMhH83xraVVk+cbsthevga5q02Agr9rNiAQsdT97qRz/5TkopSHTxxrht6xgICCv2MgEK2cgIKKnPHHXe422+/PUkFiqeAgro5nnPOOW7w4MFJamUQUABQSKUDCgDqEwGFflZMQEHdu5599lm37+mfuM7Ow67bIk/Juz2azLTYsxGzqIjK5v6pTPgaSluXlu84WlXCT1/7r32R1O3YpvLUmbpPKeVah7W60Se/2o0fP75u/pjrFQGFbAQUUG0KKOhu6FOmTPGfzUoioACgEAIKAISAQj8r5stWN6J54YUX/GQ3orHGeNgwz1JMHgnzZZUptq58VIdk1ROuz7e9uJ60vEpTr4QxY8b4SeOI0H8IKGQjoIBqsx4KkydPJqAAoOoIKAAQAgr9rJgvWzUsFEg4ePCgvxGNlq0xHbL0rFeTtt7Ey6ITUaVZepgnX70mLa/E+fOVS6vD0ky4zihN+6+bkTDcof8RUMhGQAHVRkABQC0RUAAgBBT6WbFftmpc6K6nek1rSIdp4bLN52tIx+XT8sf12byJy1ieMBhh623e8th8WN5k5QnTja3Xq23X1ld6/DDSEVDIRkAB1cY9FADUEgEFAFJPAYXKXn4ZYNQw1gmhTuLUbT+c4rRw2eb1mjVZvTal5Y/ri/OkLWsK9zlcF+aJ14dTVp4wPUyzV9uuXjUB9SgMmAHlCAOrAAAAyNbQAQUAAEpFMAEAAKA4BBQANBRdXQb6goACgGaj4V5btmxJloqzefNmt3///mQJQLMioACgYdAQRCXYvXcAoFns2rXL7du3L1nqoYCBAg3t7e1+edu2bW716tV+WdOtt97ql1Vu+/btPv/69et9XtG8ldekPFrWq+oK82o53BaA+kFAAUDDUCOQhiD6isAUgGanRv+jjz7qvw8XLVrkgwaLFy92U6dOdTfddJNra2vzvRNGjx7tX+fPn+8OHDjg1q5d63s6aNqzZ48vv3LlSrd7927/qseRL1u2zG3dutVt2LDB51dgQa+2LQD1hYACgIZCYxB9xU0ZATS7iRMn+iCCeg5Yz4UJEyb4hv/06dN9IEF5pk2b5tdpfu7cuW7WrFlu586dfllBhLC8ghDKIwsWLPBlrXeDvnNVTt+/9FIA6gsBBQAAAjqxpacLgGajngYKAuhVQxnUG2HFihW96xQE0COZ1aNAQyRE+dOoN8K8efN8mUIUfNCkbSkgoXkA9YOAAgAAEXooAGgmkyZN8sMUrr/+eh9MUCBAyxqaoJ4EauSrB8HChQvd7Nmz3ZQpU3weDVsQ66mgejRpnepReQUm1KNBr6KyWg7zqqeC6taQCAD1paW9vb3uLsN0dHT4CWgEgwYNciNGjEiWEDp06JA7cuRIslSYriqrzB133OGvogCl0k3Bxo0b58455xw3ePDgJLUyhgwZ4oYPH54sAcDLcY4LQFpbW/1UDwgoADVGQCFbOQGFgwcPus9//vPuHe94R5IKFG/jxo3uTW96k5s8ebL/bFYSAQUAhXCOC0AIKPQzvmzRSAgoZCsnoHD48GH3yCOP+LtLd3V19aZbF3YbGx+Ok4/XmThPMWVtXZhHstIlTNO8CdPS6opZ2bR1YuXStmHCPGHeMF/WurSy4Tqx5ViYVyy/ZNWRtqz5sK6wHhPnt3lNavDPnDnTd7sloACg2jjHBSAEFPoZX7ZoJAQUspUTUNB3w3PPPedvIKWy1mDUqzUaLc3YOnsNhWnx+ricXsXm9bu1tDiviZdDVjZcb3WYtDwS1mvzetU+dXd3v2xdPJ/F6omVUlZT1s8mFNdn+YoRb0PCbcTpovwnnHCCO/HEE93IkSP9ciURUABQCOe4AISAQj/jyxaNRI0WAgrpSg0oiHolqJx6KqjhHAsbpWED04TrC7Hylj+uK0vadmNhnmLyh8L8etVyWh1Kk0J1Wx3FSNtOljBvMeWy9iNOz8pXiMqo0a+gwtChQ8uqIx8CCgAK4RwXgBBQ6Gd82aKREFDIVk5AQY3JcLJGYb55ozRbZ+lxvjiPrTdxPpsXW04T5jfhNuK6xNaZME9aXRLWF+cL80icz9ZLvjzhq0kra2xdnD+uJ85XTJ5S6fOoOqyeSiKgAKAQznEBCAGFfsaXLRoJAYVs5QQUgIGKgAKAQjjHBSD1FFCo7ABRAAAAAADQFAgoAGhI+/btc/Pnz/fTokWLXHt7e7LmeMq3ZcuWZKl4qm/GjBlu69atSYrz2wpt377dbzu2efNmf9NIbXvlypVJKgAAAFBfGPIA1BhDHrL1ZciDGvxq4N95551+ftmyZW7Tpk1+nRr0o0ePdrNmzXLr1693N998s7vtttvctGnT3LZt23xjf+rUqW7ixIk+v+zcudNP06dP9+mqTwGBFStW9OabPHmyW7dunS+vfFqvbWu9Xnfs2OFmz57t5syZ4xYvXuznVc8111zjx+xrf9C4GPIAoJBKn+PqmPaf//mfbuzYsUkKgEL27t3rPvzhDydLtcE9FPoZAQU0EgIK2SoRUHjggQf8shruChiosa91ummfggoKHFx//fU+oKAG/549e3wAQL0WFIwQq2vJkiVu9erVbtWqVT4QkRZQUJ7du3f7Mgoa3Hrrrf5VQYu5c+f6oIECCsqnefVyWL58ua/P0tCYCCgAKKSS57g6zt13333uj//4j92ZZ56ZpAIoROd2V199tRs8eHCSUn3cQwEABhg1/seMGeOmTJni5x999FHf6FdAoa2tzQcbNHxBaeqJoFejKzxq6CsgoEnLyh/3YhAFDxQYCMuL8i1YsMC/Wu8IUT1K17K2CwBAJejRyZ2dnckSgGLps6PAXrlPjGo2BBQANDT1FlAAYNeuXT6YoHsWXHvttW7mzJlJjmPU2NdQBUWmNQzBTJo0qbexr0CBlrPovgnanoIGIQUtQtovAAD6S1dXF09KAsqgQII+PygOAQUADUsBAg1n2LBhgx/SoOV58+a5W265pbd3gtIUXNDQBPUs0LCHhQsX+qEoRr0IFGjQsAcFE9RLQQGDOLCgfAooaLiEhjjYkAp7NeqRsHbtWj9v6aorX6ACAIBS6N48XGEFyqNeCnx+isM9FIAa4x4K2fpyDwVgoOEeCgAKqeQ5ruq5++673XXXXcc9FIAS6L5bV1xxhRs1atRxF5iqiXsoAAAAAKgZrq4CqAYCCgAAAECD0ZAHAOhvBBQAAAAAAAgQlCsO91AAaox7KGQr9x4Ka9as4e68KMvzzz/v3vWud/mbdVYa91AAUAj3UABqj3solIaAAlBjBBSylRNQUCDhjjvucJ/5zGeSFKB4CkYpmHDGGWckKZVDQAFAIQQUgNpTQOGP/uiPfEChVr0UuCkjANSAPTeY3gl48cAB96Mf/ShZOt5/Pf54Mpeus7PTPy4KAAA0J25qWjwCCgAaCgGF5rZ923a3acNG9+A3H3Q3rFjhtm7Z4pdt+vZj33Z/dPkVbueOHe5f77/f7d69Oyl5DI8qBQAABBWKQ0ABQMPg5jnNbd0/rHF//M53uqV//ufuRz/+sWvJ/fvi57/ol216+MEHdYbg/uPr/+H+1/s/4Ga/aYb7zne+k9TQgxMIAI2A7zKgfHx+ikdAAUDD0Jc/QYXm9e9f+1oy51z77qfczFmz3J7243sg7Nq50/3l//5r9+A3v+mXNbzhm9/4hp8HgEbC8RAoH5+f4hFQANBQiCg3r6Pdx4a6rL/3Prdq5UrX3t6epPTYsmWL+9hf/bX73ne/m6SoHH8zABoLx0IA1cJTHoAa4ykP2Up9yoNOoFRGT3m4/fbbk1Q0ix/98Idu//79yVIPO8Dlu85w6oQJbsIrX+nn9ZSHsWPHuilTplT8UVE85QFAITzlAag9nvJQGgIKQI0RUMhGQAGleOcfvcN9+9FHk6XiLVqyxP350g/6eQUUxo0b5yZPnkxAAUDVEVAAak8BhSuuuMIHFCp9LlAsHhsJAECVpV1DeNPMGe7Nb3mLn7/ufe9zEyZMcJMmTfJBhHzoLgwAAFAYAQUADYWb6CB0+ulnuJNOPskHCC688AI3tLXVjWprc7/x2tcmOQAAAF6Oc8riEFAAADQUnQC0tbX5+fX33us2btjo067/yPXuyZ/9zD/p4SMf/rBfn4WTCAAAmpcuRNBbsTgEFAA0FL788Ybf/V33yGOP+hsyXv/Rj7qbP/5x/3ex+Rtb3e+84Q3ujW98o/t/2x7pyQwAABDhwkLxCCgAABrKfz78sLvs7Zf6eyrc8pnPuBuWL/cnBm+ZOdv9v299yz344INu7qVzejJnIDAFAABQGAEFAEBDmThpkrvq6qv9/Bt+9w1uzmWX+fnlH13hzpl8jp//0Y9+5F/TKJjAlQkAAJob5wLFIaAAAGgIo9tG+1c9atROAvTYtK6uLj//i1/8wr144EU/Hxo8eHAy14MTCACNgO8yoG/orVgcAgoAgIbwx/Ov8s+L/tUvf+n+6oYbfNq/bLrf3fWVr/j5z3zqU669vd3PG/VmmHfF5ckSADQOGkMAqqEld3JVd982uuKkCWgEagCNGDEiWULo0KFD/mpzsXTypDJ33HGHu/3225NUNJN9+/a5F154IVkqIHf0O/WVp7qhQ4cmCc6tWbPGjRs3zp1zzjkv67nQV0OGDHHDhw9PlgDg5Sp5jnv48GF3zz33uAsvvNCNGTMmSQVQiM4jly5d6kaNGuXP02uhtbXVT/WAgAJQYwQUspUaUJCDBw/6RqG+I7q7u3u7fMbj4u3KTdr6fHltXtKW01h98autk7BsWKexciZelrAOk7UtS4/rDMV58uW3vDYfisuJpYV1ZInzhXWF2wznxbYRzqe9is0/9dRT7n/9r//lJkyYQEABQNVV6hxX32mdnZ1u586dbteuXb5O+56zY6N9D8bS0rPyFqMvZYsVbqPY7VX6PSnNaJ3liV9jWeli5YoV5s2qU9K2aWVL2UdLL7Q+FKYVM2+UFp7XZVG5QnnyUdlTTz3VXXTRRW7kyJEEFIpAQAGoMQIK2crtofDss8+6559//mXfE3aAstdYnB4fkNLWZdUjti6r3rSyoXzl4nUSr4/FdeWrx9LCOk2cFi7H9dk6idPz1RnLqkfy1RWWkzhfuKzPok4exo8f70aPHl3xkwgCCgAKqeQ5rgIK6rGl46F6K6R9T+o1X/A9Xm/S8lma8ltaLC5XiOWPy6WlZ9Ud5w1fTVq5kOVVPisb1xcK8xul6bhiZY3VEQrrtddQWlqWtPpNuA2xOvNtU1NWwz6upz+E+xy/hj/feB+UZix/TOmqQz0TTjzxRH9+HtdTLQQU+hkBBTQSfXERUEhXTg8FnUDt37/fvfjii34+7UBgBxo7mGQdLCxPmN/yxmnhOmPpmmw5pnX6G7CDc1iPzYdpJq4zLY+E+WzeKC1MtzrCusLyJlwvms86uSiGlQ9/Dpq0Hdu+hPXbPujVTiDE0mJh/vDV1onqOeGEE1xbW5tv+Gu5kggoACikkue4+j5VXS+99FLvzWlN/D0Zfz9amsR5Jet7VOK67DVeJ3G+rDSjtFDaeisr4fowLW29WLodj8TyhHXnew0pTeJ0CcuZeFnCsnFeiesJ07MojyY75qbVEZbPWqf5NFZfzNLtVVN8/De2DbH0ME3C43+aeJ1tO54X24Ze1ZDX+UA4JLLaCCj0MwIKaCT6MiSgkK6cgIIOSAok6OQp7eCU7+CjdDvAhOUkTEtbb6x8vrpE6SYtn62Py4b5rFyxlDd+/+F24vl420bp8c82TVin5KszFJczSsv3+0vbr7RtWlq8HS2rfjX8NVUaAQUAhVT6HFffcfpezPrejFm+Qt+j5UirWypVf8jqDOu25VLE+xzva7xcCiubVqfkq9fK9UW8naz9iRVa3x/CbVZj+6pf5wPVfp8hAgr9jIACGom+sAgopCsnoGCyDjhKT6O8VsbyWPk43aTVb+I6QmF9cb1heijOG5eLWflS82Rtw/KK0vLlC9cXejVaNpaeL6+lS755iddZuqQt9xcCCgAK4RwXgNRTQIHHRgJoSFkNQ6WnTbbOXm1e4vR4fZp8eSw9fA3z22sozhvOp00mbZ1NJk7LmjeF8pXyalMoTAtf09Il33zaOkvPWgYAAEBxCCgAAAAAAICSEVAAAAAAAAAl4x4KQI1xD4VsfbmHwr59+9yiRYv8/NSpU92CBQvcxIkT/XI1rV+/3j+CcNasWUkKmhX3UABQSLXOccNjpMydO9fNmzcvWSps9erV/piqeiZNmsQxDqgw7qEAADWmR0e2t7e7VatW+ZOeZcuW+fRt27a5LVu2+HWyc+dO3+i3ZZXT8q5du/yJkvLK5s2bfR5N27dv92lWl1hepamOcDtaBwDAQBEeIzXNnj3bH9vCY6KOezoWWn6l69gmCiBMnz6991gJoHkRUADQ0BRMmDJlij8Z0snS2rVr/QmQrszoJOiaa67xN+OzgMOcOXP88k033eTLKF2vN998c+/JlAIFujqzceNGX+f8+fN9nuuvv95t3brVn5BpXidkGzZs8PUCADCQ6LilY5oFCXSMW7lypT/G6RipY+XVV1/t833kIx9xe/bscbfeeqvPZwF0ACCgAKBhqUGvxr5OkJYsWeKDC+qauWPHDt/ol7a2Nn9ipO6etqyTJS0rv67C6CqNghI6uVJepelVwyiWL1/e2wtBZbWs+pVH62fOnOnrBQBgoNHxy45homPfihUr/PFMx00NGdQ6Hc92797t8yg/ABgCCgAalgICd955p9u0aZNv2K9Zs8afJOlkSXTVRQEATeq5oN4GOoFS90/1LFBvg2nTpvkrMuoOqpMqXaFRmu6LoGU7sdKy0bwFLDjxAgAMRBY0sIB7PosXL/bHzkL5ADQfAgoAGpYa/iHdcEpBAw1n0DqdTKmngYY1aCyo0tSF04Y/qFeCehroBErrVF7LoqCDhj0sXLjQn4yJbU/5VOayyy5z5557ru8VAQDAQKLjlHrxaVIQXccqO16pZ4LoOKgguY5nOt6J5QsnAM2LpzwANcZTHrL15SkPwEDDUx4AFMI5LgDhKQ8AAAAAAKChEVAAAAAAAAAlI6AAAAAAAABKRkABAAAAAACUjJsyAjXGTRmzlXtTRj2q0Z6XDZRKT+bQE0AqjZsyAiiEc1wAUk83ZSSgANQYAYVs5QQUjh496j7+8Y+7a665JkkBivfggw+63/3d33WnnXZaklI5BBQAFMI5LgAhoNDP+LJFIyGgkK2cgILy33HHHe6zn/1skgIUb82aNW7ChAnujDPOcC0tLUlqZRBQAFAI57gApJ4CCtxDAUBD6erq8hNQrsOHD/ueLgAAAMiPHgpAjdFDIVs5PRQOHjzoeyjcfvvtSQpQPPVQGDdunJs8ebL/bFYSPRQAFFLpc9z9+/e7HTt2JEsAijV9+vRkrjYY8tDPCCigkRBQyFZqQEFXlVWGgALKZQGFc845xw0ePDhJrQwCCgAKqeQ5ro6J69evd6985SvdmWeemaQCKOTee+91S5YsqfjQx1IQUOhnBBTQSAgoZCOggGpTQGHs2LFuypQp9FAAUHWVPMft7u72DaOrr76agAJQguXLl7urrrrKDR06NEmpvnoKKHAPBQAAArW8IgEAlaKAPBfggNLpAlVnZyf3UyoSAQUAAACgwagxpF4KAEqjz44CcgQUikNAAUDD4MoyKkEnEJxEAAAAFEZAAQCAAIEpAI2A7zIA1UBAAUDD4KoyAAA9CCgAfcNnqDgEFAAACHACAaAREGQH+obPUHEIKAAAEOAEAgAAcIGhOAQUAACIcBIBAEBz4wJDcQgoAAAQUDCBkwgA9Y7vMQDVQEABAIAAJ+EAGgE9rQBUAwEFAAAinIgDANDcOBcoTkt7e3vdXYrp6OjwE9AIBg0a5EaMGJEsIXTo0CF35MiRZKkwXVlWmTvuuMO94x3vSFKB4m3cuNH93u/9npsyZYr/bFbSkCFD3PDhw5MlAHi5Sp7jqp577rnHvfe973VnnnlmkgqgkGXLlrkrrrjCjRo1quLnAsVqbW31Uz0goADUGAGFbKUGFOTgwYNu69at7sc//rHr6uryaWkRZgUfbKy8rbeu7uGy5ZE4XyjMZyy/SSsnVjauI05Py6d5E6bZvInT4rrC9ZqXOF3ifGll0/IXmzeUli8uI5YWlo/z27ow3YTrTzjhBPeHf/iHbuLEiQQUAFRdpQMKd999t7vuuusIKAAlIKBQGgIKQI0RUMhWTg8FfTfs3bvX7d+/v6zviUINznzifGnltGzbCNfrtbu7+2X5Q/n2I986o/W27XLF20nbbqHtFLOvparEfthn8cQTT+yXkwgCCgAKqeQ5ruohoACUjoBCaQgoADVGQCFbOT0UlF+9FA4fPnxcD4V8DUtrVGblyVof1mvzWdsqtA3R34LW58uTJm0/Cilmf+P0YusOqYwptWyx8u1XuH2TL+/QoUP951EH8bSyfUFAAUAhBBSA2iOgUBoCCkCNEVDIVk5AQY1FTbraX6kGrDVY0xqu1uhM21acv9i8Nh+/hutCaWlZlFfy1SeWHq5PyxvXZ7LqLUWx+yCF9iOrXMjq0GeyP04gCCgAKISAAlB7BBRKQ0ABqDECCtnKCSgAAxUBBQCFEFAAao+AQmlq8xMCAAAAAAB1jYACAAAA0IAKDfUCgL5iyANQYwx5yFaJIQ/dT/2jO3r4V8kSStEy8mw36JWXJUvoK4Y8ACiEIQ9A7THkoTQEFIAaI6CQrS8BBV2VUSCh+7+uTVJQjkHT/61mB9NGQ0ABQCEEFIDaI6BQGs4SATQkBRQ6CTz2WWdnJ11mAQBA07GnPyE/AgoAGpIawfRk6jsFFAAAAJoNF1SKw5AHoMYY8pCtL0Meurq63P5nfuxG/fQDSQrK8eK597i2tjaGPVQAQx4AFFLJc9zDhw+7e+65x82aNYshD0AJVq1a5YcKMeShOAQUgBojoJCtLwEFldv/zE9c288IKPQFAYXKIaAAoJBKnuOqnp07d7oHH3zQHxPtaqu6cafNS7xsSsln0taXI23borSs+SxhXfG8pJW1dZKvbrE6w1eJ50Nh/VLsNvIpJo9YvnDfssqmpZeynVBWmbC+rHkJ61N6vGzSyqXVE6bpfGf8+PFuzpw5buTIkQQUikBAAagxAgrZ+hpQOPDsT92on74/SUE5FFAYPXr0cQdrlIeAAoBCKnmOqyFrL7zwgnvuued8b4WYNcQKNbAkTE+bFytjdYavIcuXxsqE8/nqCdPivGnrxdLSluNycR0mqy6J6zBhHgnzxfWF4rpD8XbC+vKlZ+WTtLIS5zNh/rje+NXyiC1L2vqQ1WHCOsOyIcsf1ltMPp2Xq2fCSSed5M/P08pUAwGFfkZAAY2EgEI2hjzUHj0UKoeAAoBCKnmO293d7Y+jBw8e9MdEazilydfYCtPT8oVpNp9WTuJ8sbC8xPnjV2P5JSwjaflDWXWGsuoPyxVTPmu9yVeHyaqrmLKliLdj9WdtJ9/2rVyaMN3Kp+W3tLTtpKWFrK4wT1qa6Hxn6NCh/ty8lg16Agr9jIACGgkBhWwEFGrvpd/4PzUdQ9hICCgAKKSS57jW+FJgwRpPabTOGlXhfClUJq2e8DVNvnKlCOuIxfWl1Z8vT766Y8qr42Vcfyht+2JlRb+zYrfZV1n7k5aelbcQey9WVq+Wptfw/YbbCPOFwjxp4votr6XZ+vA1pN+DJstfCwQU+hkBBTQSfWERUEhHQKH2GPJQOQQUABTCOS4AqaeAApecADSkONqM8vGzBAAAQBoCCgAaWPWvqo9//QfchDf8nTvx3HcnKS+n9cVSfWNffbkb1DraDTvx3CS1euiZAAAAgCwEFAA0sOpeWVfDf/i4qW7vjn9wQ0dOdGPOvtwNHTXJTzLi1On+1QIEtmzBguG5SXnDdft+8R/u4N4dbvTps9348z/QW1e10DsBAAAAWQgoAGhItbiy3nmg3QcFhp801e3duca98JP73NizL3cjT+kJDpz5lrv8q5w09d256T3u5PPf707IlTn9TZ9zY86e5856+7+68bk09WJQ4GH0aW/20/Bx57rWURPd0NxUTfRQAIDmsX79erds2TI/aT5Le3u7n0q1evVqd9lllyVLzm3ZssVPoYULF7pdu3YlSz3279/fm6b9KmfbAPoHAQUADcnu3FtNL/7yEffUN/7UDRs31Z3xlq+4ttNnJ2te7unvftb98tEb3bhXX+GXOw7sdr969G9cd8e+nmDEj+9zQ0ce642w/6nN7tDene6lX25LUqqDHgoA0Dy2b9/ub8Q7b94839Bfu3atT1eDftu2bb4hr3kLOGg+XBfbuXOnXydar/quv/56vyxab5OVX7BggZs4cWJvmqY1a9b4YITmtY8KLmRtE0B1EVAA0LCq3RhWj4JRp8/2gQEFBEYkPROG+J4Fxw9V0PLg1tGuq2NfkjIw0UMBAJrLlClT3LRp09yKFSt8AGDfvn2+14Aa8osWLXK7d+/2adZjYM6cOW7r1q1u/vz5Po9RAEDlNa1cudI3/sOeBkZlFLxQea2/9dZbfTBBZW666abeoIKVFwUzNmzY4AMbAGqLgAIAVIh6KIw65X/4YQu6B8Lenf/gexaMPv3NbsIb/ra3d0Hngd1+KITSfv2dz/qgggUWNGxCLM2mQ3t3uOEnTnVjXn25X18t9FAAgOakoIF6K2iaOXOmb8yroa/lqVOn+rQdO3b4dOVVrwLrjSAKJCgosWrVKt/4V5BC1AMhpPQlS5b4182bNyepPd7//vf7dE0KdGgS1aF6wwAGgNogoAAAFaJgwJNfv9L99F/+0P3863/slxUIsGWtkx/dd4kf8qD0A34oww63+xt/5tcpjwIOCkaEk4IKyq+eD9WkHgr0UgCA5qIggXoNqAGvRr56FajR39bWluTooeCCAglap2n27GND/bTOehXE5ULKIwpKjBkzxs+bfOUADAwEFAA0JBrBAACURkEADTnQMAYFAtTD4Nxzz/WNfg0/UM8E0at6ICj/rFmz/JAI3ecgDACoB4HKaJ3qEQUfQipvQyq0PfV6sDxh3unTp/veERpaoTImrg9A9bXkviDqrj9rR0eHn4BGMGjQIDdixIhkCaFDhw65I0eOJEulUbkDz/7EjfrpB5IUlOOl3/g//gSRAE3fDRkyxA0fPjxZAoCX4xwXgLS2tvqpHtBDAUDDYvR/33EPBQAAAGQhoACgYXFNvTIIKgAAACANAQUADYt2MAAAANB/CCgAaFx0UQAAAAD6DQEFAA2rhYhCn3EzRgAAAGThKQ9AjfGUh2x9ecpDV1eX27d3j2t98n+7lq4D3KCxRAojdA8Z77rPuYmnPFQIT3kAUAjnuACknp7yQEABqDECCtn6HFDYt88988wz7sUXX3Td3d3JmnRqMOe7+aCt12Tz4Wsora4wX7g+rCMuU45wOyauO86Ttg/6u9SzvsePH+9GjRr1sjpROgIKAArhHBeAEFDoZ3zZopEQUMjWl4CCGsYHDx50L7zwgjt8+LAPMFiDWT9zBRiskWyNaAkb1yFLS8srVqek1ZFWztbrNSybxvLH9Uq8Li1vmCbx+pjezwknnODGjh3rD2hZ+VA8AgoACuEcF4AQUOhnfNmikRBQyNaXgIIoiKDvCr1aACGrEZ2vcR1Ky2eNdClUR768WhcHO0TzWpe27VDa+qwySjdWf5hP80OHDvWT9gl9R0ABQCGVPsfdv3+/D6wDKM2kSZOSudogoNDPCCigkRBQyNbXgIKEDWdrNGuyHgFpwoa1lbF6rMFvwnXxvITlw7QslkfisuGrhPWF6RLni+fz5TcEEiqLgAKAQip5jqvv9A0bNvjvHfU2A1CcLVu2uBtuuMHP6/yoFggo9DMCCmgkBBSyVSKgAAwUBBQAFFLJc1wFv++77z531VVXuTPPPDNJBVDI8uXL/edGx20CCoVx+QkAAABoMAoocAEOKJ169/DZKV5dBhQUKWJiaqQJ6dR7I+3nxcRUrxMAVIsCCrqHENDonv71r93Xv/b1ZCndU794yj3++OPJUn4KKOizEw8FRbq6HPIAAAAANJpKDnlQPXfffbe77rrrGPKAhqPGvobFKlj/97fd5j7zyU+7XT/5UbL2eLpA9ZEPfdg9+thj7oFvfsMH2wYPHpx5r6hly5a5K664wj82u1b3k2LIAwAAAAAAFaRAwj/d+Y/ud6Zf5F47Zap7+x+8rWdFi3MPfvNB99rJU3x6OC1euNCvd0ed+4cvfdn9Ri7tvKnnug99cKl74fnsp6DQs7A4BBQAAAAAAAPe977zXfdXH73BD3PQsITOzs5cqg0tdK4rGeoTTn597t/gQXrKV5frzqUdPnzYbVy/3n3ib//O15uGIQ/FIaAAAAAANBgaQ2hEj2x7pKe3QeKZp5925//m691tf//37v9961tJ6vG+8/jj7rJ589zyG25wP/j+D5LUHt/85jd8z4U09FAoDgEFAAAAoMHQGEIj6jx8/D1GDhw44K679t1u5d/8jVvz5X9IUo/39NNPuz+97jq37C/+wv3bV7+apPY4qmhCxkeFoFxxCCgAAAAAAAY83Uxx2LBhrjWYhgwd6p5+5pneGxn2TkGe7qNH3UsvvXRcmqZhdXLjw4GMpzwAAAAAAwBPeQDy0xMarPeN7ovQZylV8JSH0hBQAAAAAAYAAgpAfrffepu7bfWtyVLfnfrKU91W3UchQEChNAx5AAAAAAAMeD1PaDhUuanjcFLz8bgHSfEIKAAAAAAA6pp6E/zjV77iFlx7rV+edNpp7u5//j/uTTNm+OU3v/UtbsP9m9wpp57ql1EZBBQAAAAAAHVtxMiR7jWTz3FTzp3ql8866yz32xdc4E4eP94vv/LUV7qp557rJkyc4Jfz4QkPxSOgAAAAAACoawf273e/97sXu+v/4iN++aEHH3Sv+43fcP989z1+ee2aNe6C1/+m+69vP+6XURkEFAAAAIAGwxVWNIPzz3+9mzxlSrLk3G+89rVu4qRJfl73Qbjof/wPN+7EcX55zJgx7oILL8ylF24Ccw+F4hFQAAAAABoMDSI0g0/d8hn3lXvu9gG0cSee6O+ZsOKGj+Y+AM7NnDXLfeFLX3JXX3ONz7tw8WL3xX/4spt+0XS/nI/q4zNUHAIKAAAAAICBL2rjf+aTn3J/t+rjvvH/3LN73c033eS++PkvOHfUuW8/9pj7wh2fdxs3bPB571y31n3+c3e4/3r8v/xyPqqPXj7FIaAAAAAAAKg7/3L/v7i777qrZ6HFuS994Uvu8ce+7Refe+459/Gbb3ZP/eIXfnn3U7vd365a5R8XicohoAAAAAAAGPiiTgOf+uyn3WduucWpM8HQoUPd+k0b3Hv+5Dq/7vTTT3ebv/GAe/Nb3+qXS0HvhOIRUAAAAAAaDA0iNKIhra3JXI+zz361m5o8JrJ12DA3YeJE9+pXn+2XTzn1VHfmmWe6kSNH+OU0g/LcoJF7KBSHgAIAAAAAYMA79zfOzf3/WEP/7X/wNvfW2W/ONf6de/HAAXfRBRe65cuu9+se3b7dveZVZ7sN9633yzEF3c5//fnJ0vG4h0LxCCgAAAAADYYGERrRJRdf7P5s4f/s7T0waFChv/Psdee97nXuI9f3BB9ifHaK19Le3s5PCwAAAKixjo4OP1XC4cOH3T333OOuu+463+0baCQvvPCC27dvX7JUOoUjJk6alDqsYdmyZe6KK65wbW1tqeurobW11U/1gIACAAAAMABUMqCgeu6++243a9YsAgpACVatWuXe+973+oDCoEG16dBPQAEAAABASSodUNixY4d76KGH3JEjR3q7cOu12Kuu/Tlsoti6C+VLW1/oPaaVUVp3d3fecrFwO3GdaftQaL9MXFe90vuIf6bF/gwqJf5ZFtq+Agjjx493l156qRs1ahQBhSIQUAAAAAAGgEoGFDo7O93zzz/vn8Wv4Q9prHEVNrJKbfCl1SFp9ShNsvKlrTdp9Wk5bLBaeTUCbT6sM67DluP0WFhHLK4jra5C64ytS8sncbrVmSWrHhOuz5qXrHqUHv6ss6SVt7R4ndVl60JZdZhwOV5nCqXr/SiQcPLJJ7uRI0cma6uPgAIAAACAklQyoNDV1eUOHTrkXnrpJd9DoRhZja1SWT1hfeXUbXVkCdfH9ZezPStTaLtZytlmKCyftg9aTguWxGnhPsTLafVKnK+QrHqKYeWK3V6+fSu0H8W+L6tHr8OGDfPBhFo26AkoAAAAAChJJQMKoqCCruDna3BZY8saU5Y3bGDFaVnCukxaPVKorixZ9YWK2ZalWV2xMC2rrAmX862L5VsXUj7Jt42Q1qXlidM1Hw9JsHmlh4GKsFwaKxdvIxSm6zWtd0Oh7RjLF243llZXnBYuW116HTx4cO9yLRBQKNEvf/XrZA4AAJhTT3lFMgegGVQ6oACgPhFQKIGCCVe/+0+TJQAAYP5pzefdKa8YnywBaHQEFABIPQUUanPbSgAAAAAAUNcIKAAAAAAAgJIRUAAAAAAAACUjoAAAAAAAAEpGQAEAAAAAAJSMgAIAAADQxJYtW+ZmzJjh5syZ4xYtWuT279+frKme9vZ2vw8A6gsBBQAAAKDJLV682G3atMnt27fPbd682W3ZssUHFxRsUIBBDX7NK03z4fKuXbt8/m3btrmdO3e6lStX+jpXr17t861Zs8bnW7t2rU9fv369X6dJ+bVOeQDUHwIKAAAAQJNTw19BAb1OmjTJ7d692y1fvrw3wKDG/9SpU33gQQEEBQUUaFAelVG+DRs2+KCCrVu3bp2vW6+rVq3ywQMFFbZv3+7LzJs3zwclZs2a5c4991yfF0B9IaAAAAAANDk18hVQUMN/2rRpbuvWre6mm25ye/bs8euXLFnigwXqfaBgg4IBbW1tbuHChW7Hjh0+KKA6VG7BggW+rOpRGb0q75QpU3wgQZQ2ceJEH5yYO3eunwDUHwIKAAAAQJNTg96CCeptoIa+AgMTJkzw69XrYPr06b6XggIHChQoIKA8CiKMHj3aL4uCDeqtoCCDBRqUf+PGjb58SNuz4Q8A6s/gpUuX/nUyXxMHXnzRrd/0r8kS0NgUnf+T9yxwM9/0RvezJ3/u9u8/kKzpcc1V73Stw4a5PXv+O0kp7LJL3+ba9/zSdXR0JCnZJk54pVv0Z3/iTj75JLfriR8lqT20b+/6o7nu99/6ZvfMs8/mpr1+P4cNa/XzxdI2rrnqysz3KBde8FtudNsod/7rziuq/mm5/Jom5k5q9D7T6gQa0eWXvd2NGjkyWQLQ6Lq6uvxUC2effXbu/OBkPz8sdy4yfvx4P0ThN3/zN/1whNe//vXuO9/5jk9Xb4WzzjrLPZs7X9DQBi0roKDpkksu6Q0aKJig/HpV74crr7zSz4ttT0EKbUevCkhoO0CzGzx4sJ/qQUt7e/vRZL4mfvmrX7ur3/2nyRLQ2Db/20a34f5/9QGD6z/8527Bdf/TBwNEDey23LQv11i2BvPECaf6hv+Uya/x+eyuy+Hy2i/+vbv57z7l05VXgQHRunBelFfbV1Bh3jvn96aL9m3rNx50jz72uFuW27flf/kxN/fSt7ntueWN93/V12X7I7Yc7pesv+cfc2W+ncv3w+O2E+7zoj+7Ljf/3z5IYPUrECFKD2mfd+/Z4/dLP6MZb/o9tyr3fuOACNCI/mnN590prxifLAFodAqaF3OBAEBja21t9VM9IKAAVImu2F926R+4JX/+Eb88ZfI5vvF8/Yf/l7vwgt/2Df1JuUa1GthqaCu4MGXyZJ+np0F+jpv9B5f1NvxV5trr/qe79dN/6/YlDXo18m/73Bd8TwdtR4375X/5v3sb32rIqx7Vfe11C32aaHsLc+ssTY1/ueaqd/n9kflXXemDBAqGbMzt6+pP/50PHKi+JX/+F71BhTVf/HufT3lsu6uTfZyW22cFKrS9MKCg99nWNtKNzu2/6rzzn+7x5dT7YkLuZ3Jg/4Hc/B/6bdyae38KVOi9A42OgALQXAgoAJB6CihwDwWgStSIt54H6gGw8mN/6eZe+gd+WUGA2z/3RT9v1uUa1av+7tO5Mvt8g13sKr6u1N+eK2ON+HX/dLfPM3Xya3yDXw10BQW0zfBKvhr/asSrR4Aa5VlUJiw3N9eY3/XEE/7GTPOveqevp+f99Gx/5psu8a+igIHy6T3ed88/+n1Wfu2XAg3q9RDTe1QwQYGSB77xUJLaE4RRz4Q5uTLz3nm1252rQ1r8/wEAAADUEgEFoErUQJ+RayCrga1AgRrXcff+mBrs8f0CVuQa7BuSgEDYkLfhDRoyoYa5ehes+6e7fJqoUa9tz/qDub63ga7+m525fdP9CSxgsezDH/T7atSN6YFcndqu9l29DbTvWlYwRO/FLP6z63Lp/+Z7O0yacKqvU+/D8ir4EdP+KsihXhfqRREKfwYWSLD3CgAAAKB2CCgAVaJGtxrTGiqw7eEtvpG+NbgaX6z5V70r12j/E19egQDRlfwt/7bBrc3Vrwa4GugaIhDWbwEMDZFQjwDNWwBBZdTY13CFLf+20U2Z/GofQDC6Z4GCELfm9l1DENRrQGVu/thf+gCAghhGvQi0L6pnS277GtKwJVeX8uq9p1EgQT0aFPRQGaN91nvTMAjdS2HChFN9z44t3/hmkgMAAABArXAPBaABqYeBggLhfRLqkXoirL/nTvfoY9/uvXHjzid+6MLhGEAj4x4KQHPhHgoAhHsoAKgZNcL37Gl3y//yxiSlfqkXhG5EqZ4WetSk7ttgT8UAAAAAUFv0UAAAYICihwLQXOihAEDooQAAAAAAABoaAQUAAAAAAFAyAgoAAAAAAKBk3EMBAIABinsoAM2l0vdQ2LFjh9u6dWuyBKAYo0ePdgsWLEiWaqOe7qFAQAEAgAGKgALQXCoZUDh69Khbv369u/LKK92ZZ56ZpAIoZMWKFW7+/Plu0KDadebnpowAAAAAakYBhc7OzmQJQLH02eFpK8UjoAAAAAA0mK6uLgIKQBm6u7v950evKIyAAgAAANBgdJVVE4DSKaCA4hBQAAAAAAAAJSOgAAAAAABAoKWlJZlDPgQUAAAAAABAyQgoAAAAAAAQ4B4kxSGgAAAAAAAASkZAAQAAAAAAlIyAAgAAAAAAKBkBBQAAAAAAEnrCA095KA4BBQAAAAAAEtyQsXgEFAAAAIAGxBVWAP2NgAIAAADQgLjKCqC/EVAAAAAAACBAQK44BBQAAACABkNjCOgbhgwVh4ACAAAA0GBoDAF9Q1CuOAQUAAAAAABAyQgoAAAAAACQoIdP8QgoAAAAAAAQIKhQHAIKAAAAQINh/DdQPj4/xSOgAAAAAABAgKBCcQgoAAAAAA2G7tpA3/AZKg4BBQAAAAAAAvRQKE5Le3s7PykAAACgxjo6OvxUCYcPH3b33HOPO3DggBs7dmySCqCQbdu2uRtvvNG1tbXVrJdCa2urn+oBAQUAAABgAKhkQEH17N271z377LPu0KFDmVdb1WDSOnuNxeutgRXnjcun1WdlJa0uKxOWTasnS1yfhGnxfJhm4rJpdYnSBw0a5Lq7u4+rK64zTDeF1ovlsXTLE5eNxfnC8pJWX5xH8tUhYdm0fGnzsbB8mCctXfOa7OctcZlQWM6k5Q+3o1f9TkePHu1e8YpXuFGjRr2s3mohoAAAAACgJJUMKHR2drr9+/e7ffv2+TqtwWQKNbjEGlo2b8K6wvVp86G0OuJ8cb3G8obrw/Lh+jAtZOs1qWEaC8saqyOuW2xdKF/5UFpZifNJvjoszebDeuN1sbBem7e8YVo4b6w+yx/mjcXrrIwppo5YmDcsH9YjYbqE60yYZ/DgwW7kyJG+V8/w4cNT81cDAQUAAAAAJalkQEGNI9WloQ9pjWeJG1o2nyXOb8JylieuL0w38XqxtLTyJkw3Yf64bEjpYV1psrZl9cblLS1rm1nCMmn1hsK85WxLrP6wbLl1FZK2Lcm3vXhd2rIU2t8wXzwfv9o6ox4KCioMGzbMv1qeaiOgAAAAAKAklQwoiBpKYWOpWuLGWtiAs/lYWCYfK1ts3mLyxcopl/W++qLc/S+0L1ZvufXXUrjP5ex/MWW0vtY/FwIKAAAAAEpS6YACgPpUTwEFHhsJAAAAAABKRkABAAAAAACUjIACAAAAAAAoGQEFAAAAAABQMgIKAAAAAACgZDzlAQAAABgA+vMpD0df+J47uu97yRKqavgpbtD42ckCUBiPjQQAAABQkv4KKOjZ+13fW+TcSz9NUlBtg153m2sZcZZraWlJUoBsPDYSAAAAQM0pmNDZ2emOdh5IUlALnQef878LoNEQUAAAAAAaVG9A4Wh3koJaUM8TAgpoRAQUAAAAgAZ25MgRdzT3D7XT1dXtursJ6qDxEFAAAAAAgH6kgA73T0AjIqAAAAAANCi62Q8MCiXwu0AjIqAAAAAAAABKRkABAAAAaFB0sx8Y1DmB3wUaEQEFAAAAAOhHiiUw5AGNiIACAAAA0KBoxA4M/BrQqAgoAAAAAA2KbvYDA78GNCoCCgAAAECDaqYeCoNaRydzAKqFgAIAAACAqjp12g3urLf/q3vN5Q+5EadOT1KPd9qMO9ywE6cmS/kNP/FcN/789/v5E6e+278C6H8EFAAAAABUjRr/I06Z7n76L3/onvrGn7lh46b6tLbTZ/v1Y199uRs6aqIbPHR0Lt9FbsIb/q43sKBgwYnnvtudfP4HfBmtGzpqkuvq2OcO7d3p6xj/+g+4MWdf7vMD6F8EFAAAAIAG15L7N1B0Htjthyec8ZavuJGnTncHntriho+b6tpOe7NfP/bsK9zQkZP8fOuoie6FH9/nTnvTHbkybb5nQ+f+3W7UqRe5MWfP83WdcuFHc/km+UCEluXw3p3+FUD/IqAAAAAANLijuX8DhfZEvRN+tf1v3KCho92EN/xtz4oU+3+x2b34q0d8OGRw65ietKc2u44Du33Q4KVfbculH7t3gnopdKu3wnM7kpSBQe+ZG2SiERFQAAAAAFA1J5x4rjv77f/qBg1rc4OH9QQDOl9sd8NPnOqHLKgngtH9FUaeepFvkHd1vNCTWIB6PwzLbWMgUSiBR3iiEQ1eunTpXyfzAAAAAGqkq6vLT5WkRmxnZ6cb8uxX3aDug0lqbWlYgu55MPr0N7vurkPu14//bU/Pgq7DrnXMWW7fk//qOvb9xHV37nMdB9rdmFe93f3q0Rtz5dp9efVKUAv9cC7PkYPP9Nw/4bmd/vVw7vXIwad9PYee+Y7PPxAcbrvEtbZNcoMHD05SgGz6O6mXv5WW9vZ2QmUAAABAjXV0dPipkhSgOHDggBv+w4Vu8JFnk1RU24FJK3xPi6FDhyYpQLbW1lY/1QOGPAAAAABAP2K0AxoVAQUAAAAA6EfcjxGNioACAAAAAAAoGQEFAAAAAOhHDHlAoyKgAAAAADSolpYW/6SHFv/gQtSKhjzw2Eg0IgIKAAAAQIPywQQFFXL/UFv6PQCNhoACAAAA0MBoyA4M/B7QiAgoAAAAAA3KhjygxnK/h+7u7mQBaBwEFAAAAIAGRTBhYLChJ0CjIaAAAAAANLiuwScnc6i27pYTXPcQfv5oTC3t7e2ELQEAAIAa6+jo8FMlqZv9/v373TPPPOMOPv+L3HJX7w0a9eSHcF7/hT0aBrUM6l1WPntSRDgfim/8GNYv8bKk1WnzYVrI6gjz6z/rAXBc+WDIR1zncfmUlvvP9yQI0vRqMsslaeKXg3q0/dYR49yJ409z48aNc0OGDPH5gHxaW1v9VA8IKAAAAAADQH8EFNSwPXTokHvhhRfcgQMHXFdXV7KmOGn3YNDyoEE9wQbfcLaGfMZ8mrjeeDmtvKXFr/nE9YotFyorWduI67V8mhTEsTJ6HTZsmBs7dqxra2vzPzegEAIKAAAAAErSHwEFURBB9XZ2dvqGb9igzjcfphWrUJli64zz5SuXtS4t3dLiV1snYRnLY8L8onkLEoTpRusGDx7sG4fqnRDWBWQhoAAAAACgJP0VUBBr7KY1emNxI1vzaWkma9lew3ImLiO2PitdwnWaz9eYr5Rw+6aY7dl7tPJp9QBpCCgAAAAAKEl/BhQA1I96CigwiAcAAAAAAJSMgAIAAAAAACgZAQUAAAAAAFAyAgoAAAAAAKBkBBQAAAAAAEDJCCgAAAAAAICSEVAAAAAAAAAlI6AAAAAAAABKRkABAAAAAACUjIACAAAAAAAoGQEFAAAAAABQMgIKAAAAAACgZC3t7e1Hk3kAAAAANdLZ2em6urqSJQDNavDgwW7o0KHJ0sBGQAEAAAAAAJSMIQ8AAAAAAKBkBBQAAAAAAEDJCCgAAAAAAICSEVAAAAAAAAAlI6AAAAAAAABKRkABAAAAAACUjIACAAAAAAAoGQEFAAAAAABQMgIKAAAAAACgZAQUAAAAAABAyQgoAAAAAACAkhFQAAAAAAAAJSOgAAAAAAAASkZAAQAAAAAAlIyAAgAAAAAAKBkBBQAAAAAAUDICCgAAAAAAoGQEFAAAAAAAQMkIKAAAAAAAgJK1tLe3H03mAQAAAPSz7u5u19XVlSwBaHZDhw5N5uoPAQUAAACgijo6OvwEADJq1Khkrv4w5AEAAAAAAJSMgAIAAAAAACgZAQUAAAAAAFAyAgoAAAAAAKBkBBQAAAAAAEDJCCgAAAAAAICSEVAAAAAAgBrZv39/MgfUHwIKAAAAAJpOe3u7W716tZ9q1aifMWOGu+CCC9z69euTFKC+EFAAAAAA0HR2797tbr31Vj/t27cvSa0ebdO2u2fPHv8K1BsCCgAAAABQZaNHj3Z33nmnW7VqlVu8eHGSCtQXAgoAAAAAUAQNjdi2bZufNGQin507dx6XT2XVKyIcXtHW1uYuvPDC3jTLo8mWbXthOWCgaMn9gR9N5gEAAAD0s46ODj+httRIv+aaa/z8Aw884CZOnOjns9x0001u3bp1yVKPWbNmueXLlx9XVgGEZcuWue3btycpzvdAUPqGDRvctGnTfM8E0T0UlH7zzTe7efPmHbdPGzdudPPnz+8NJGgbS5YscXPnzvXLaByjRo1K5uoPPRQAAAAAII8wmKAG/YIFC3wDf8uWLcc1+kXLFkxQ8GDmzJlu7dq1xwUYirFo0SI3depUX14UeFi5ciU9FTCgEFAAAAAAgAxqyFswYcWKFf6eB+qVoF4GGrKg9faUhnCIg/Iqz+233+5fLb1Y6rEQlhfdxHHz5s1+HhgICCgAAAAAQAYLFugmijYcQdRDQT0QxHof2KvWhXnV08DyFkvDKYzKKngBDDQEFAAAAAAgg/UsmDJlin8NKVAgugGjWN7wngomLS2fOICggAYw0BBQAAAAAIAM1rBPu3eBhiCIBQuKyQs0EgIKAAAAAJAh7IUQBwq2bt3qXy2gYK/KG94zQeV27dqVLAGNg4ACAAAAgKamGx3qXgnhpCc4iO5lYD0P9DhIBQoUINCTHyxocO211/pX3UjR8uppD1aX5umhgEZEQAEAAABAU7v55pvd9ddff9ykRzSK7l2gJzuIggwzZsxwF1xwQe+TH5YsWdJ7fwXl1VMZFFRQsMHqUjAhvMki0CgGL1269K+TeQAAAAD9rKury0+orZaWFt/Q15CGrOniiy/2ec866yzf+8B6GQwbNsw/eeFjH/uYmzt3rk8zGvbwtre9zZdXoEGBBOV7+OGH/bAHrVddoqCD6p4+fbpPD/dp9uzZfjsmzovG0dramszVn5bcH+bRZB4AAABAP+vo6PATGtPu3bt94CDukbBw4UJ/zwUFIKzHAyCjRo1K5uoPAQUAAACgiggoNC71LtCQCN1jQYED672goRLrkiESCibEvRrQ3AgoAAAAACgKAYXGtmHDBrd69ereGzaGdL+FxYsXJ0tADwIKAAAAAIpCQKHxKZiwfft2P/xBdLPG8AkQQIiAAgAAAICiEFAAEKrngAKPjQQAAAAAACUjoAAAAAAAAEpGQAEAAAAAAJSMgAIAAAAAACgZAQUAAAAAAFAyAgoAAAAAAKBkBBQAAAAAAEDJCCgAAAAAAICSEVAAAAAAAAAlI6AAAAAAAABKRkABAAAAAACUjIACAAAAAAAoGQEFAAAAAABQMgIKAAAAAACgZAQUAAAAgAa1b98+t2jRomTJuZUrV7pdu3YlSwDQNwQUAAAAgAa1f/9+t3PnzmTJ+XkFGZS+Zs0at2XLlmSNc5s3b/Zp7e3tPo/WrV+/3i9v377dr9ey0byttzxa1uu2bduOy6tlqxtA4yCgAAAAADSZhQsXuj179vjeClu3bvWN/0cffdSNGTPGLVu2zAcc1LNBeRQEmD9/vp9fu3atDzRs2LChd516Pezevdu/qpzKq07lUX7VrdeWlpbjeksAqH8EFAAAAIAmM2vWLN+TQIGAKVOm+Ma/ggPqSWC9CCZOnOgWL17sXzUtWLDAl1MvB5VRWevxIG1tbT6P6HXatGl+nbajYILlpZcC0DgIKAAAAAANSo18UWNekxrzCg4o/bbbbvPrVq9e7QME06dPdytWrHDXXHONT89HvRHmzZvXG0DIxwISqnvu3Ll+HkBjIKAAAAAANKjRo0e75cuX+wCAAgdLlizxDXqla2iCegwo7dprr3U7duzwQyEGDeppIqiHgbH5SZMm+UmBBN0TQUMbpk6d6uvTqyg4oeUwr7ajujWkAkDjaGlvbz+azAMAAADoZx0dHX4CABk1alQyV3/ooQAAAAAAAEpGQAEAAAAAAJSMgAIAAAAAACgZAQUAAAAAAFAybsoIAAAAVFF/3JRRj4TUkxSAZqRHntazer4pIwEFAAAAoIoqGVA4erTnVP7GG2901113nZ8Hmsm9997rFi9e3Pu403pEQAEAAABAUSodUOjs7HRf+cpX3MqVK5NUoHksX77cXXXVVW7IkCGupaUlSa0vPDYSAAAAQNUpoKDghPVUAJqNfQZQGwQUAAAAgDqlK7Ld3d3JEtB8FFDo6upKllBtBBQAAACAOkXPBKAnsMZnoTYIKAAAAAB1jsYUml293j+h3hFQAAAAAOqUNaJoTKGZEVCrHQIKAAAAQJ2yhhQNKjQzAmq1Q0ABAAAAqFM0pADUEgEFAAAAoE7RMwHo+RzwWagNAgoAAAAAAKBkBBQAAACAOsfQBzQz/f3zGagNAgoAAAAAgLrFkIfaIaAAAAAA1DkaU2hm9FCoHQIKAAAAQJ2yRhSNKQC1QEABAAAAqHP0UEAzY8hD7RBQAAAAAOocPRTQzPj7rx0CCgAAAECd4qosgFoioAAAAADUKa7MAj34LNQGAQUAAACgTqmHAg0pALXS0t7eTj8pAAAAoEo6Ojr8VAkKKOzfv9996lOfcmPHji0qwJCWJ0zTfEzr4jxZ27F1aXnS6k4Tls+qJ06TrDJalnBdnGasXFhHPG8sTcJ0k6+M1Rmvs3STVlbS8oXLYmWz6g3Ts9YXQ3klrieeD+XLk1aPpJV59tln3V/8xV+4UaNG9abVG+17vSKgAAAAAFRRJQMK3d3d7sUXX3RPP/20Dyxo2RpbWY2wsDEmWctWPhTWZdLyWlpWPSatvlBW+WLTw2XbVkjrLE9W3rA+CfOF0tKz6hSl2/q4bJg3rjOfrHpsG/F8KM6TT758WduxZSsTzpu0smnzVm7w4MFu9OjRbvz48W7kyJG9+eoNAQUAAAAARal0D4XDhw+7ffv2uUOHDrmurq7exla+xlXcMDOVaJBZ3WnCdWnbj+XLb+vCPGJ5lBaXyZKVL647TVguzhvuSyiuV8uDBvWMRldQKNwfyxeWsXWStt6kpYW0LqzLWHpftxOmWV1hXr2G7zfOH6drXj8nvYoCCieccIJra2tzw4cP92n1iIACAAAAgKJUOqCgBtmRI0deFkyw+VjYSAvz5CtTKdqG9jdsFIrtjwn3xV6VlraPaWn56pO0MoVYmWLLpuVTmrGGdKxQ/eVsX/NZ2wspv/IUuw2J85ZSR748aeviNC0rqDB06NDegEw9IqAAAAAAoCiVDCjkYw2vsBGmeZO1PmywSVZaLF8dYulhWVsutv4wb1hfmGbidZK2HEpbF9YTl++LsH5JW87aZpg3az5LWp5wG/G8xHlNvJ2wrKQth+LyEpeRMC1tPq633hBQAAAAAFCUagUUANSHeg4o8NhIAAAAAABQMgIKAAAAAACgZAQUAAAAAABAyQgoAAAAAACAkhFQAAAAAAAAJSOgAAAAAAAASkZAAQAAAAAAlIyAAgAAAAAAKBkBBQAAAAAAUDICCgAAAAAAoGQEFAAAAAAAQMkIKAAAAAAAgJIRUAAAAAAa2LZt29yyZcv8tHr1ard///5kTXWtXLmyZtsG0D8IKAAAAAANrL293TfkFyxY4OfXrFnj0xVo2LJli58XW1aeeFnT9u3bffr69ev9686dO/2kupWm/GJ5LZ/Sra59+/b5NACNYfDSpUv/OpkHAAAA0M+6urr8VC1q9D/zzDPuyiuv7A0AaFmNfgsKqKH/hS98wQ0fPtynt7a2uuuvv96dddZZ7q677nJnn322790wdepU9yd/8idu+vTp7vOf/7w799xz3Qc/+EE3bNgw9/DDD/t6n376aXfrrbe6k08+2QcXbrvtNl+vAgoKaowePTrZMwCiz1u9oocCAAAA0ODUmJ8zZ44PFqhRP2XKFJ9uvQ/GjBnjl3fv3u2DBQocqOGv/LNmzXLTpk3z+dTTYO7cuf51165dbuLEiT4YsXz5crdkyRK/HVH9Wt6wYYNft3jxYp8XQGMhoAAAAAA0OAUFNm3a5O68807fsNf9FObNm+eDA9LW1uYb/go2aJ16MVggQPc+UDBBQYV169b5PAocqB6VE61XT4eY8ij4oPoY7gA0HoY8AAAAAFVU7SEPauxrSMLrX//6JMW5jo4OP4RB6RrOoB4Jf/VXf+W++tWvumuvvdadf/75flnDGP74j//YXXzxxb7c4cOH/dCJ7373u+7yyy/35RQ0+OQnP+l7LKxatcoHD2x7Wr927Vr30EMP+fnZs2f7dQCOqechDy25L5ijyTwAAACAfqbGvCYAkFGjRiVz9YchDwAAAAAAoGQEFAAAAAAAQMkIKAAAAAAAgJIRUAAAAAAAACUjoAAAAAAAAEpGQAEAAAAAAJSMx0YCAAAAVdQfj41ctWqVGz9+fLIENI+9e/e6D3/4w8lSfarnx0YSUAAAAACqqJIBhaNHj/rpzjvvdDfddFOSCjSPFStWuKuvvtoNGjTItbS0JKn1pZ4DCgx5AAAAAOrY4cOHXXd3d7IENBcF1I4cOZIsodoIKAAAAAB1jMYUmpmCaXwGaoeAAgAAAFCnbMgD0MzooVM7BBQAAACAOlWvY8YBNAYCCgAAAECdoncCgFoioAAAAAAAAEpGQAEAAACoUwx5AHrQW6c2CCgAAAAAdcoaUTSm0Mz0909wrTYIKAAAAAB1TA0pGlNodgTVaoOAAgAAAFDHaEih2RFUqx0CCgAAAECdsoYUQQU0M/7+a4eAAgAAAFCn1JDSxNVZNDuCCrVBQAEAAACoUxZIoDGFZkZArXYIKAAAAAB1it4JAGqJgAIAAABQ5wgqoNnxGagNAgoAAABAHWO4A8DnoFYIKAAAAAB1iquyQA8+C7VBQAEAAACoU9xDAehBD4XaaGlvb+cnDwAAAFRJR0eHnyqhu7vbHThwwH3xi190y5YtS1KB5rFq1Sp33XXXubb/v727j7GsrO8A/szOMLvszizLLuVlFyoGdIFErRWsiYmWl8YGi4XQhDYWiglNVMQWEUtrJUZTpZJAW4qlrUlbkLa00aWoVFPBlhSjSI1gCiyWlwbuAO4uLzOzizu7M9PzO3PO7GG4M3Of7e56787nQ27Oc57zPM859979g+d7nnNneLhnw7WhoaGq1HsECgAAcADtj0DhjjvuSFu2bCnv0jbv1MYEq7mKYe5d3IXq5/ar65qade3Gao7Trr4uh+Z+s23TfOOF+Y7Ffmgea9Y1zT0e2rUJ7cZp9m9um8fqcq2uC802odkuzB0zdNKm1qyvy3X/duW5bdtpjtNuW1tov12f+cqh3u/v709HHnlkOuecc8pJedT3IoECAADQkX0ZKMSkavv27emFF15IY2NjZcAQdfNNrJoTtDC37Xx9m/VRXrZsWbmNV1hovGgb1zV33GbbueOE+vjc7XwWa7fQeJ32qetqzT51m7r93L71ttk2tqFduW7b1GxTa7atj9cW+uxr7frOHT/MHSPs7bFOzR0j9pvjxfuLlQnr1q1LK1eurGp7j0ABAADoyL4OFHbt2pVefvnlcsyYPM6nORmbOzHrZD8066Jc13eiXfvYr8OJpthvnqtp7rF6v9Prqdt3co6F2nSi02taTM51tDtnu7p6vx435xxz+3ZiofE7OXfdpnnu+LezfPnytGLFijQ4OFjW9yKBAgAA0JF9GSiEmGBNTk7OlufTnIzlqCdyoR6j3Vi54+/N9eT0mds29tvdra+1G7vT89Vj7m3/2nzj1BYbb+7x3PMvpt14zbooh8WuMcw3Tmzr76muax6v1W3jsYcIFnqZQAEAAOjIvg4UgN7Wy4GCPxsJAAAAZBMoAAAAANkECgAAQNcb27m7Ku29fTEGsIdAAQAAlojz//mhdPvmrdVe97n4js1V6dXuevKldPcTL1Z7e9x4/0jR79F0zbefqmpeLcZtje1Mt/xwS1Wzx4e//lh5rOmu4jw3//C5aq9zj2zdUfa75t75rwUOJv1XXHHFJ6syAACwn8VfZKj/KsOBFJPkR7a9XL7O3biuDBZu/uGP09jE7nTfM2PpCz94Lq3oX5Zee/iKsn1M1E9etzLd+9RL6YEf76jaPJueePEn6a3rh9NlxUT87BPXlpPn6LN6+UA5Mb/m20+n2x/dmt501Kr0+fufSf/51GjZ78zjD0/LB2buZ8bYtxTnjvMdsXIgffSux9ODP96eHnxuezptw3C67aEtxfG4nr503X2tqt0haefUdPqn/97yijEnJqfT5W/bkD76zSfSJW8+uhw/ruPj//5k2S6uNdpe9IajinOMp/XDg+mPv/1Uef7TimP/+tjz6czXrimv9YhVh5TniWuJvnGsvsbrv9tKtz08877ufjICh1d/dqkvpZ8p+ser/hxhMb38Jy+tUAAAgCXgrmISfOmpx5TlsZ2TxaR7Ih1bTK5jUn33Ey+lC99wZDnRj2O16LNp8/PppCNWpi8+uCXd8K4T0+atEUrsSJuLV4hyra/477yN69Lw4EC6ffO28ti5J60rzxFjhRg/goozjl9TTso3Pbqt3I8JfxgtjkfoEfubHn0+XfqW9WWbuN7oW495UtEnxjzjtWvKFQif+cXjy/7hmnufLt7r+nTRG49MrfGZ1QejxeQ/xrjlwQgSVqer3n5c+V7Cjfc/kzasXl6OWVs92F+eO66xvPa+lM48/rAyMIlxTi4+k7mfXezHK64JlgKBAgAAHORiIn7/yHg5yQ+xgiCsH14+GyAU8+V04RuPSsPL+8v9mNCX7YsDG4YGZ+vjb843Q4emTZu3pruKCfaGYtzacDExb+7HBD8CgggzanEd0+XIM2IyHysJYhvnnXu+GLO+nhArDNpN4qNdO9E3jg1VY4yMTZSrGpri/PU5Ricmi2sZKN/HRW84sqw7ad2hr/rsYKkRKAAAwEHuvpGxckXAH51+fPF6TXpk68vFZHmgnDDH6oOYHMed+Kiv1ZPpM4t+UY7tZd94rHy0obwLX+3PTKdnxIQ7AoNYRRDjR1AQmgHAhqGZungEI+rOOv7wMriIO//RvgwRqiBgdlu0q8eYHbO6/nDfyHi5rV162jHlqoOPf+t/Z4OAEGNcVEz843wf/vrj5XuJ8eIzGRmdmF1tMXOugZlydY0PF8fKxxx2Ts4em++zg6Wir9Vq7YkCAQCA/WpiYqJ8dbvvjYyVjw7c8MsnlHfrgf1jaGioKvUegQIAABxAvRIo1Mv561UAwP7Ry4GCRx4AAIBXKR8zECYACxAoAAAAANkECgAAAEA2gQIAAACQTaAAAAAAZBMoAAAAANkECgAAAEA2gQIAAACQTaAAAAAAZOtrtVrTVRkAANjPJiYmyleu6d3bU5ocr/boWv1DqW9gVbUDixsaGqpKvUegAAAAB9DeBArT09Np6sFL0/SOx6sauln/G29MfatOqPZgYb0cKHjkAQAAulgZJkxNpandVif0it0To+X3Bgc7gQIAAHS5Xbt2pempqWqPbrdzYqdAgSVBoAAAAF0uHpEwQe0dU7snfV8sCQIFAADoAaanvSO+K4ECS4FAAQAAupiJae/xnbFUCBQAAAD2ob7iJVRgKRAoAABAF+vri+kpPcV3xhIhUAAAANiHYnWCIIilQKAAAABdrF46b3raO/qK/zzywFIgUAAAgC7mTndvWrbMVIuDn3/lAADQxeo73b1yv3vZ4Op0yNCx1d6rxfF4dWrF2lOK9sPVXu+YmpqqSnDwEigAAEAXixUK5TP51X43G/7ZX0onnPPVtOHt16bXnX9P2yDg0LWnpONOv6naW9zwcWel/sHV5dgrj/6Fqrb7WVnCUiBQAACALleGClW5m6054dfSs/d9Oj35jd8otxEErH/7teWKhVhpcNRpnyjbRf1xp/9leSxChzUnnp+O+LkPl3XrTnnf7LGwbPlhRfvD0tFF33gtX3tyWd/dpv2GAkuCQAEAANgntjzwp+mot34iveZdf5/6l69Ou8ZbaVW1qiBChBVVGBCPPLTu/WiamngprT35femQVcemweK15YE/SUe86XfKMOLQom2EB4cefkqanBhNL/7Pl9LzD/1N2vn8w+UYXa2vzwoFlgSBAgAAsM88/pV3p5F7ryyDgvkeUdg1/nSamhhLP3n+4TQ4dFxZt+PZ76bJom5qYjTt2v50We4/pPPfWugqFiewRAgUAACAfWLmsYSr06qj31auSIjgIFYprD3l4jJgqMUjEPFow9ritf3Z71S1i1tZjNsbP9AoUWBp6L/iiis+WZUBAID9bHJysnx1Kp7Fn5iYSP1bv5aWTb9c1XanFx/7Uvk4w+DQsWlbPJ7wwsNp+3PfScuWrUijT34lTbz0eHp56w+K7WPllHt7656i/qtpatdo2jn6WLlqYWdxbGL08XKVQrx2vvBQmhh/uqh7bCakKOqiXTfbddg70iGrNqT+/v6qBuY3ODhYlXpPX6vVEp8BAMABEuFAvDoVf35wfHw8DT7ygTQwua2qpZuNH/eHaejot6WBgYGqBuY3NDRUlXqPRx4AAKCL+XG/3uMbY6kQKAAAQBfz5wd7T3xjvjeWAoECAAB0MSsUek98Y743lgKBAgAAdDF3unuPb4ylQqAAAABdzJ3u3hPfmSCIpUCgAAAAXczEtAcVX5kgiKVAoAAAAF3MxLQH+cpYIgQKAADQ5axS6DHF1+U7YykQKAAAQBeLialVCj2m+Lp8ZywFfa1WS3QGAAAHyMTERPnq1NTUVNq+fXt6/pmH0+RLD8ze+Z4ub4MXhZi31v9HHxPZYlPuNo/lzG2rsWI+3BynOW75o4MzezOqNgvpq0Zo9JrRqKjn4LNV1bjRtw5WXvG+Q914ZvhZ9YR+9oxVn7JZo92s5nj1WHVdG/U1RZs9zfvSISvWpJXrz0hr1qxJAwMDZVtYyNDQUFXqPQIFAAA4gHIDhZi07tixI23bti2NjY2lycnJ6sjMsWXLZhYdzwYNxbaceFfbuvz/tdg4sxP4xvlrOX1Du/61duM228/t21S3XUzdZr5x5h6vzxnblStXprVr16bDDjts9ruBhQgUAACAjuQGCmHXrl3lKoWdO3eWKxb2h04n24tpjlOX621dntsm1PvtNPvV6rrY1uVmfX2sE822i/Wbe7y5H9vBwcEyVFi+fPmC40BNoAAAAHRkbwKFmLRGkBCvKM8nJrALHd8fFjvn3OPztd/ba49+YV++706uZb42sSqhfkEnBAoAAEBH9iZQAA5evRwoiM0AAACAbAIFAAAAIJtAAQAAAMgmUAAAAACyCRQAAACAbAIFAAAAIJtAAQAAAMgmUAAAAACyCRQAAACAbAIFAAAAIJtAAQAAAMgmUAAAAACyCRQAAACAbAIFAAAAIJtAAQAAAMgmUAAAAACyCRQAAACAbAIFAAAAIJtAAQAAAMgmUAAAAACyCRQAAACAbAIFAAAAIJtAAQAAAMgmUAAAAACyCRQAAACAbAIFAAAAIJtAAQAAAMgmUAAAAACy9bVaremqDAAA7Ge7d+9OU1NT1R6w1A0ODlal3iNQAAAAALJ55AEAAADIJlAAAAAAsgkUAAAAgGwCBQAAACCbQAEAAADIJlAAAAAAsgkUAAAAgGwCBQAAACCbQAEAAADIJlAAAAAAsgkUAAAAgGwCBQAAACCbQAEAAADIJlAAAAAAsgkUAAAAgGwCBQAAACCbQAEAAADIJlAAAAAAsgkUAAAAgGx9rVZruioDAAAduPnW26oSwP510XsvqErdR6AAAACZzjr7vKoEsH99885NVan7eOQBAAAAyCZQAAAAALIJFAAAAIBsAgUAAAAgm0ABAAAAyCZQAAAAALIJFAAAAIBsAgUAAAAgm0ABAAAAyCZQAAAAALIJFAAAAIBsAgUAAAAgm0ABAAAAyCZQAAAAALIJFAAAAIBsAgUAAAAgm0ABAAAAyCZQAAAADjrDw8PpovdeUL42rD+mqt3jovf+ejpp4+uqvc6cefo7y3E7EeeMc7c7R31tl77/ktlre+upP9/2Ohey2HsM9bidjh9tznvPu8v2sBiBAgAAcND58m23pPXr15flv/3CX7wiCIjyffd/P7VGnq1qZuqa21pzEh4hxOrhoVe1aeczn7q6bHfD9ddWNXvE9Wzc+Po0NjaW/qw4HqHDucUk/rRqEh/9FrqO2t8V4zTfY63Zth53sfFDXPNVV/5umi7K0TbG7CSEYOnqa7Va8e8FAADo0Flnn1eV6EaxkuDc95ydLrv898r9mBy3Rp5JH3r/JcUE/Jj0yOYflcHApju+VtT9djGBni4mzuvTSNGmLv/S2eeWE/anR0aKCf/GdPElH0h/fv3nynFO2vj6dNe3/iONjY2WE/prrr2+bPvZa68rxw5XXXl5eY6NRd/zL/jNsi7Enf8PFtdx8SUfLPfrFQwRVkTIMTo2XgUXw8X1fSXdcutt5dijY2PlueI6IogIX77ti2Wb2++4Mw0X54rrv+rKjxRjnlgc7Suu67rZceO8sY33dtqpby63N97010Xfr5VjReAQn814cf7684r3GP0vu/xjZRt+Or5556aq1H2sUAAAAA4qMbkeKybG4YbrP5c++6mr08nVxD0m0BEANN140xfKutGx0dmJfojJ/ubNj6bP3/RXs5P4m2/9h/RbxaQ+HjPYVEzkI7yIu/h1UFGLQCCOxaQ+JuvziT7NfhFwfO/+/0q3FOe5tCjHGEPFWHcXk/vx4hrOPP0dVcui7eVXlsFArMaIiX8EHXH8X4r3GOHCue/5larlHvGe4rOJ67rrW/dUtSmdV7T93v3fT79aXOsfXP3p2RUMMT7MR6AAAAAcVOLu+mmnvqWcFMfd9bgzv5gIDOoQovahom88FhF3/ZuPC0Tbehvnit9CiKChFqsBYuJ+3gUXlqFAvGoPb/5ROfGvJ+xxrB67FmM+Xbwi5JhZeTBS7t986z++4r3EiotoE6spIniIFREh2sbqgtvv+Gq53xTtI1SJsCGuuxYrIPqKbXwG8b6iHKIe5iNQAAAADipxp31TMZmOO/fxWMD69Ue/4m58J2LCH78pUK8uiEl+iBUE8QhCTO5DPDYQk/Pm+BEaRP/fv/LychuPMdQBQkzWo299bfH4QXOFQgQTETLEeWYerbin3MYKhA82gokQ4/7bnbeX47RGRsqwoX5MIcaof1+h6YzT35kuLI7HsUc2P1rVxkqJR9PGja8rt/H+IsiIMZptYC6/oQAAAJn8hkJviEl8/dsCeyseZZjbv1kXk/czTn/HKx6VqLXrW1vo2todm2+sdm2b4UU77Y5HXfwIYzxqESFCPOoQ2zpI4aenm39DQaAAAACZBAqE+O2EuNsfKw7mCw56SYQWM49rzPwFiljt0Fw9wU+HQAEAAA4iAgXgQPFXHgAAAICDikABAAAAyCZQAAAAALIJFAAAAIBsAgUAAAAgm0ABAAAAyCZQAAAAALIJFAAAAIBsAgUAAAAgm0ABAAAAyCZQAAAAALIJFAAAAIBsAgUAAAAgm0ABAAAAyCZQAAAAALIJFAAAAIBsAgUAAAAgm0ABAAAAyCZQAAAAALIJFAAAAIBsAgUAAAAgW1+r1ZquygAAQAc+d90NVQlg//rYRy6rSt1HoAAAAABk88gDAAAAkE2gAAAAAGQTKAAAAADZBAoAAABANoECAAAAkE2gAAAAAGQTKAAAAADZBAoAAABANoECAAAAkE2gAAAAAGQTKAAAAADZBAoAAABANoECAAAAkE2gAAAAAGQTKAAAAADZBAoAAABAppT+DzT2BuXeGrpfAAAAAElFTkSuQmCC;" vertex="1" parent="1">
          <mxGeometry x="10" y="70" width="1044" height="852" as="geometry" />
        </mxCell>
        <mxCell id="xfd4URBrpyYl_AO3d1zu-5" style="edgeStyle=orthogonalEdgeStyle;rounded=0;orthogonalLoop=1;jettySize=auto;html=1;strokeWidth=4;" edge="1" parent="1" source="xfd4URBrpyYl_AO3d1zu-4">
          <mxGeometry relative="1" as="geometry">
            <mxPoint x="993" y="378" as="targetPoint" />
            <Array as="points">
              <mxPoint x="1190" y="379" />
              <mxPoint x="993" y="379" />
            </Array>
          </mxGeometry>
        </mxCell>
        <mxCell id="xfd4URBrpyYl_AO3d1zu-6" style="edgeStyle=orthogonalEdgeStyle;rounded=0;orthogonalLoop=1;jettySize=auto;html=1;strokeWidth=4;" edge="1" parent="1" source="xfd4URBrpyYl_AO3d1zu-4">
          <mxGeometry relative="1" as="geometry">
            <mxPoint x="998.1021881103516" y="728.3664321899414" as="targetPoint" />
            <Array as="points">
              <mxPoint x="1187" y="728" />
            </Array>
          </mxGeometry>
        </mxCell>
        <mxCell id="xfd4URBrpyYl_AO3d1zu-4" value="&lt;font style=&quot;font-size: 19px;&quot;&gt;inputs stack on each other on mobile, so users can read&amp;nbsp;&lt;/font&gt;" style="text;html=1;strokeColor=none;fillColor=none;align=center;verticalAlign=middle;whiteSpace=wrap;rounded=0;" vertex="1" parent="1">
          <mxGeometry x="1090" y="510" width="190" height="70" as="geometry" />
        </mxCell>
        <mxCell id="xfd4URBrpyYl_AO3d1zu-9" style="edgeStyle=orthogonalEdgeStyle;shape=connector;rounded=0;orthogonalLoop=1;jettySize=auto;html=1;labelBackgroundColor=default;strokeColor=default;strokeWidth=4;align=center;verticalAlign=middle;fontFamily=Helvetica;fontSize=11;fontColor=default;endArrow=classic;" edge="1" parent="1" source="xfd4URBrpyYl_AO3d1zu-7">
          <mxGeometry relative="1" as="geometry">
            <mxPoint x="769.5573505602388" y="254.2565227307772" as="targetPoint" />
          </mxGeometry>
        </mxCell>
        <mxCell id="xfd4URBrpyYl_AO3d1zu-10" style="edgeStyle=orthogonalEdgeStyle;shape=connector;rounded=0;orthogonalLoop=1;jettySize=auto;html=1;labelBackgroundColor=default;strokeColor=default;strokeWidth=4;align=center;verticalAlign=middle;fontFamily=Helvetica;fontSize=11;fontColor=default;endArrow=classic;" edge="1" parent="1" source="xfd4URBrpyYl_AO3d1zu-7">
          <mxGeometry relative="1" as="geometry">
            <mxPoint x="469.07889918277147" y="254.2565227307772" as="targetPoint" />
          </mxGeometry>
        </mxCell>
        <mxCell id="xfd4URBrpyYl_AO3d1zu-7" value="&lt;span style=&quot;font-size: 19px;&quot;&gt;Sign up box&lt;/span&gt;" style="text;html=1;strokeColor=none;fillColor=none;align=center;verticalAlign=middle;whiteSpace=wrap;rounded=0;" vertex="1" parent="1">
          <mxGeometry x="530" y="220" width="190" height="70" as="geometry" />
        </mxCell>
        <mxCell id="xfd4URBrpyYl_AO3d1zu-12" style="edgeStyle=orthogonalEdgeStyle;shape=connector;rounded=0;orthogonalLoop=1;jettySize=auto;html=1;labelBackgroundColor=default;strokeColor=default;strokeWidth=4;align=center;verticalAlign=middle;fontFamily=Helvetica;fontSize=11;fontColor=default;endArrow=classic;" edge="1" parent="1" source="xfd4URBrpyYl_AO3d1zu-11">
          <mxGeometry relative="1" as="geometry">
            <mxPoint x="758.3716430664062" y="652.2118584127988" as="targetPoint" />
            <Array as="points">
              <mxPoint x="618" y="652" />
            </Array>
          </mxGeometry>
        </mxCell>
        <mxCell id="xfd4URBrpyYl_AO3d1zu-14" style="edgeStyle=orthogonalEdgeStyle;shape=connector;rounded=0;orthogonalLoop=1;jettySize=auto;html=1;labelBackgroundColor=default;strokeColor=default;strokeWidth=4;align=center;verticalAlign=middle;fontFamily=Helvetica;fontSize=11;fontColor=default;endArrow=classic;" edge="1" parent="1" source="xfd4URBrpyYl_AO3d1zu-11">
          <mxGeometry relative="1" as="geometry">
            <mxPoint x="170.13634894875918" y="458.6289511287914" as="targetPoint" />
            <Array as="points">
              <mxPoint x="351" y="458" />
            </Array>
          </mxGeometry>
        </mxCell>
        <mxCell id="xfd4URBrpyYl_AO3d1zu-11" value="&lt;span style=&quot;font-size: 19px;&quot;&gt;Login form box&lt;/span&gt;" style="text;html=1;strokeColor=none;fillColor=none;align=center;verticalAlign=middle;whiteSpace=wrap;rounded=0;" vertex="1" parent="1">
          <mxGeometry x="530" y="410" width="190" height="70" as="geometry" />
        </mxCell>
        <mxCell id="xfd4URBrpyYl_AO3d1zu-16" style="edgeStyle=orthogonalEdgeStyle;shape=connector;rounded=0;orthogonalLoop=1;jettySize=auto;html=1;labelBackgroundColor=default;strokeColor=default;strokeWidth=4;align=center;verticalAlign=middle;fontFamily=Helvetica;fontSize=11;fontColor=default;endArrow=classic;" edge="1" parent="1" source="xfd4URBrpyYl_AO3d1zu-15">
          <mxGeometry relative="1" as="geometry">
            <mxPoint x="746.6069371840535" y="887.5059760598576" as="targetPoint" />
            <Array as="points">
              <mxPoint x="620" y="780" />
              <mxPoint x="620" y="887" />
            </Array>
          </mxGeometry>
        </mxCell>
        <mxCell id="xfd4URBrpyYl_AO3d1zu-20" style="edgeStyle=orthogonalEdgeStyle;shape=connector;rounded=0;orthogonalLoop=1;jettySize=auto;html=1;labelBackgroundColor=default;strokeColor=default;strokeWidth=4;align=center;verticalAlign=middle;fontFamily=Helvetica;fontSize=11;fontColor=default;endArrow=classic;" edge="1" parent="1" source="xfd4URBrpyYl_AO3d1zu-15">
          <mxGeometry relative="1" as="geometry">
            <mxPoint x="335.9117108513328" y="535.6343150419348" as="targetPoint" />
            <Array as="points">
              <mxPoint x="280" y="780" />
              <mxPoint x="280" y="633" />
              <mxPoint x="336" y="633" />
            </Array>
          </mxGeometry>
        </mxCell>
        <mxCell id="xfd4URBrpyYl_AO3d1zu-15" value="&lt;span style=&quot;font-size: 19px;&quot;&gt;Simple footer not to overwhelming&amp;nbsp;in a darker color&amp;nbsp;than the rest of the website&lt;/span&gt;" style="text;html=1;strokeColor=none;fillColor=none;align=center;verticalAlign=middle;whiteSpace=wrap;rounded=0;" vertex="1" parent="1">
          <mxGeometry x="320" y="730" width="230" height="100" as="geometry" />
        </mxCell>
        <mxCell id="xfd4URBrpyYl_AO3d1zu-22" style="edgeStyle=orthogonalEdgeStyle;shape=connector;rounded=0;orthogonalLoop=1;jettySize=auto;html=1;labelBackgroundColor=default;strokeColor=default;strokeWidth=4;align=center;verticalAlign=middle;fontFamily=Helvetica;fontSize=11;fontColor=default;endArrow=classic;" edge="1" parent="1" source="xfd4URBrpyYl_AO3d1zu-21">
          <mxGeometry relative="1" as="geometry">
            <mxPoint x="433.23786836511954" y="383.7626540240119" as="targetPoint" />
          </mxGeometry>
        </mxCell>
        <mxCell id="xfd4URBrpyYl_AO3d1zu-23" style="edgeStyle=orthogonalEdgeStyle;shape=connector;rounded=0;orthogonalLoop=1;jettySize=auto;html=1;labelBackgroundColor=default;strokeColor=default;strokeWidth=4;align=center;verticalAlign=middle;fontFamily=Helvetica;fontSize=11;fontColor=default;endArrow=classic;" edge="1" parent="1" source="xfd4URBrpyYl_AO3d1zu-21">
          <mxGeometry relative="1" as="geometry">
            <mxPoint x="776.5533698586855" y="476.81078563017013" as="targetPoint" />
            <Array as="points">
              <mxPoint x="750" y="385" />
              <mxPoint x="750" y="477" />
            </Array>
          </mxGeometry>
        </mxCell>
        <mxCell id="xfd4URBrpyYl_AO3d1zu-21" value="&lt;span style=&quot;font-size: 19px;&quot;&gt;Date input&lt;/span&gt;" style="text;html=1;strokeColor=none;fillColor=none;align=center;verticalAlign=middle;whiteSpace=wrap;rounded=0;" vertex="1" parent="1">
          <mxGeometry x="530" y="350" width="190" height="70" as="geometry" />
        </mxCell>
        <mxCell id="xfd4URBrpyYl_AO3d1zu-25" style="edgeStyle=orthogonalEdgeStyle;shape=connector;rounded=0;orthogonalLoop=1;jettySize=auto;html=1;labelBackgroundColor=default;strokeColor=default;strokeWidth=4;align=center;verticalAlign=middle;fontFamily=Helvetica;fontSize=11;fontColor=default;endArrow=classic;" edge="1" parent="1" source="xfd4URBrpyYl_AO3d1zu-24">
          <mxGeometry relative="1" as="geometry">
            <mxPoint x="777.4734547932944" y="112.09564971923828" as="targetPoint" />
          </mxGeometry>
        </mxCell>
        <mxCell id="xfd4URBrpyYl_AO3d1zu-26" style="edgeStyle=orthogonalEdgeStyle;shape=connector;rounded=0;orthogonalLoop=1;jettySize=auto;html=1;labelBackgroundColor=default;strokeColor=default;strokeWidth=4;align=center;verticalAlign=middle;fontFamily=Helvetica;fontSize=11;fontColor=default;endArrow=classic;" edge="1" parent="1" source="xfd4URBrpyYl_AO3d1zu-24">
          <mxGeometry relative="1" as="geometry">
            <mxPoint x="471.4128672281904" y="112.09564971923828" as="targetPoint" />
          </mxGeometry>
        </mxCell>
        <mxCell id="xfd4URBrpyYl_AO3d1zu-24" value="&lt;span style=&quot;font-size: 19px;&quot;&gt;Header is going to be in blue to match the rest of the website&lt;/span&gt;" style="text;html=1;strokeColor=none;fillColor=none;align=center;verticalAlign=middle;whiteSpace=wrap;rounded=0;" vertex="1" parent="1">
          <mxGeometry x="530" width="190" height="70" as="geometry" />
        </mxCell>
        <mxCell id="xfd4URBrpyYl_AO3d1zu-30" style="edgeStyle=orthogonalEdgeStyle;shape=connector;rounded=0;orthogonalLoop=1;jettySize=auto;html=1;labelBackgroundColor=default;strokeColor=default;strokeWidth=4;align=center;verticalAlign=middle;fontFamily=Helvetica;fontSize=11;fontColor=default;endArrow=classic;" edge="1" parent="1" source="xfd4URBrpyYl_AO3d1zu-29">
          <mxGeometry relative="1" as="geometry">
            <mxPoint x="134.1439039442273" y="449.4778662787544" as="targetPoint" />
          </mxGeometry>
        </mxCell>
        <mxCell id="xfd4URBrpyYl_AO3d1zu-29" value="&lt;span style=&quot;font-size: 19px;&quot;&gt;Boxes are in a darker shade of white to stand out slightly.&lt;/span&gt;" style="text;html=1;strokeColor=none;fillColor=none;align=center;verticalAlign=middle;whiteSpace=wrap;rounded=0;" vertex="1" parent="1">
          <mxGeometry x="40" y="580" width="190" height="70" as="geometry" />
        </mxCell>
        <mxCell id="xfd4URBrpyYl_AO3d1zu-32" style="edgeStyle=orthogonalEdgeStyle;shape=connector;rounded=0;orthogonalLoop=1;jettySize=auto;html=1;labelBackgroundColor=default;strokeColor=default;strokeWidth=4;align=center;verticalAlign=middle;fontFamily=Helvetica;fontSize=11;fontColor=default;endArrow=classic;" edge="1" parent="1" source="xfd4URBrpyYl_AO3d1zu-31">
          <mxGeometry relative="1" as="geometry">
            <mxPoint x="758.3714994542738" y="794.4578803567326" as="targetPoint" />
            <Array as="points">
              <mxPoint x="661" y="705" />
              <mxPoint x="661" y="795" />
            </Array>
          </mxGeometry>
        </mxCell>
        <mxCell id="xfd4URBrpyYl_AO3d1zu-33" style="edgeStyle=orthogonalEdgeStyle;shape=connector;rounded=0;orthogonalLoop=1;jettySize=auto;html=1;labelBackgroundColor=default;strokeColor=default;strokeWidth=4;align=center;verticalAlign=middle;fontFamily=Helvetica;fontSize=11;fontColor=default;endArrow=classic;" edge="1" parent="1" source="xfd4URBrpyYl_AO3d1zu-31">
          <mxGeometry relative="1" as="geometry">
            <mxPoint x="84.57475370519296" y="351.677136589499" as="targetPoint" />
            <Array as="points">
              <mxPoint x="28" y="660" />
              <mxPoint x="28" y="352" />
            </Array>
          </mxGeometry>
        </mxCell>
        <mxCell id="xfd4URBrpyYl_AO3d1zu-31" value="&lt;span style=&quot;font-size: 19px;&quot;&gt;submit buttons in yellow with padding to make it obvious to the user it is a button to send the form to the api&amp;nbsp;&lt;/span&gt;" style="text;html=1;strokeColor=none;fillColor=none;align=center;verticalAlign=middle;whiteSpace=wrap;rounded=0;" vertex="1" parent="1">
          <mxGeometry x="350" y="610" width="230" height="100" as="geometry" />
        </mxCell>
        <mxCell id="xfd4URBrpyYl_AO3d1zu-34" value="&lt;font style=&quot;font-size: 35px;&quot;&gt;&lt;b&gt;Index Page&lt;/b&gt;&lt;/font&gt;" style="text;html=1;strokeColor=none;fillColor=none;align=center;verticalAlign=middle;whiteSpace=wrap;rounded=0;fontSize=11;fontFamily=Helvetica;fontColor=default;" vertex="1" parent="1">
          <mxGeometry x="450" y="-60" width="270" height="30" as="geometry" />
        </mxCell>
      </root>
    </mxGraphModel>
  </diagram>
</mxfile>
